<?xml version="1.0" encoding="utf-8"?><svg xmlns="http://www.w3.org/2000/svg" xmlns:xlink="http://www.w3.org/1999/xlink"><symbol viewBox="0 0 32 32" class="aaicon" id="activity" xmlns="http://www.w3.org/2000/svg"><path d="M21 14.414l4.293 4.293 1.414-1.414L21 11.586l-10 10-4.293-4.293-1.414 1.414L11 24.414z"/><path d="M1 4v24h30V4H1zm28 22H3V10h26v16z"/></symbol><symbol viewBox="0 0 32 32" class="abicon" id="add-new" xmlns="http://www.w3.org/2000/svg"><path d="M17 9h-2v6H9v2h6v6h2v-6h6v-2h-6z"/><path d="M16 2C8.269 2 2 8.269 2 16s6.269 14 14 14 14-6.269 14-14S23.731 2 16 2zm0 26C9.383 28 4 22.617 4 16S9.383 4 16 4s12 5.383 12 12-5.383 12-12 12z"/></symbol><symbol viewBox="0 0 32 32" class="acicon" id="administrator" xmlns="http://www.w3.org/2000/svg"><path d="M16 21c5.523 0 10-4.477 10-10S21.523 1 16 1 6 5.477 6 11s4.477 10 10 10zm0-18c4.411 0 8 3.589 8 8s-3.589 8-8 8-8-3.589-8-8 3.589-8 8-8zm8 20H8a4 4 0 0 0-4 4v4h24v-4a4 4 0 0 0-4-4z"/><path d="M21.207 8.707l-1.414-1.414-5.293 5.293-2.293-2.293-1.414 1.414 3.707 3.707z"/></symbol><symbol viewBox="0 0 32 32" class="adicon" id="announcement" xmlns="http://www.w3.org/2000/svg"><path d="M4 13.714V13H3v-1H1v8h2v-1h1v-.714l2 .571V22a2 2 0 0 0 2 2h4a2 2 0 0 0 2-2v-.857L31 26V6L4 13.714zM12 22H8v-2.571l4 1.143V22zm17 1.349L5 16.491v-.982l24-6.857v14.697z"/></symbol><symbol viewBox="0 0 32 32" class="aeicon" id="api" xmlns="http://www.w3.org/2000/svg"><path d="M14.16 15.715c-.107 0-.179-.03-.215-.09-.037-.06-.055-.16-.055-.3v-2.66c0-.274-.06-.505-.18-.695a1.437 1.437 0 0 0-.475-.465 2.132 2.132 0 0 0-.665-.26 3.565 3.565 0 0 0-.75-.08c-.287 0-.566.027-.84.08a2.165 2.165 0 0 0-.735.28c-.217.134-.395.31-.535.53-.14.22-.22.497-.24.83h1.14c.027-.28.143-.487.35-.62s.47-.2.79-.2c.113 0 .233.009.36.025.126.017.242.05.345.1a.71.71 0 0 1 .26.215c.07.093.105.213.105.36 0 .167-.042.292-.125.375a.761.761 0 0 1-.34.185 2.82 2.82 0 0 1-.495.085 5.947 5.947 0 0 0-.59.085c-.24.027-.479.065-.715.115-.237.05-.45.132-.64.245-.19.114-.344.27-.46.47-.117.2-.175.46-.175.78 0 .253.048.475.145.665.097.19.227.347.39.47.163.124.352.217.565.28.213.063.436.095.67.095.307 0 .625-.05.955-.15.33-.1.608-.26.835-.48.047.234.147.397.3.49a1.1 1.1 0 0 0 .58.14 2.358 2.358 0 0 0 .565-.085c.063-.017.115-.032.155-.045v-.79a.766.766 0 0 1-.16.02h-.12zm-1.41-.981c0 .18-.043.332-.13.455a1.1 1.1 0 0 1-.325.305c-.13.08-.269.137-.415.17a1.81 1.81 0 0 1-.745.02c-.123-.02-.236-.055-.34-.105s-.192-.118-.265-.205a.478.478 0 0 1-.11-.32c0-.146.025-.271.075-.375a.655.655 0 0 1 .205-.25c.086-.063.186-.113.3-.15.113-.037.23-.065.35-.085a8.21 8.21 0 0 1 .76-.105c.253-.023.467-.092.64-.205v.85zm6.92-2.764c-.2-.25-.452-.447-.755-.59a2.475 2.475 0 0 0-1.065-.215c-.333 0-.644.065-.93.195-.287.13-.51.345-.67.645h-.02v-.7h-1.08v7.08h1.14v-2.58h.02c.086.14.195.262.325.365.13.104.271.189.425.255.153.066.313.115.48.145.166.03.333.045.5.045.38 0 .71-.075.99-.225.28-.15.512-.35.695-.6.183-.25.32-.538.41-.865a3.79 3.79 0 0 0 .135-1.01c0-.38-.05-.736-.15-1.07s-.25-.625-.45-.875zm-.615 2.59c-.05.217-.134.41-.25.58-.117.17-.265.309-.445.415-.18.106-.4.16-.66.16a1.303 1.303 0 0 1-1.07-.52 1.64 1.64 0 0 1-.285-.575 2.66 2.66 0 0 1-.095-.725c0-.553.122-.997.365-1.33.243-.333.605-.5 1.085-.5.233 0 .44.052.62.155.18.104.33.24.45.41.12.17.21.365.27.585.06.22.09.446.09.68 0 .226-.025.448-.075.665zm2.205-5.226h1.14v1.08h-1.14zm0 1.971h1.14v5.17h-1.14z"/><path d="M3 3v26h26V3H3zm2 2h22v18H5V5z"/></symbol><symbol viewBox="0 0 32 32" class="aficon" id="application" xmlns="http://www.w3.org/2000/svg"><path d="M25.192 16.192l-1.414-1.414a10.804 10.804 0 0 1-3.242 2.221l-2.32-6.671A3.995 3.995 0 0 0 20 7a3.99 3.99 0 0 0-3-3.858V1h-2v2.142A3.99 3.99 0 0 0 12 7c0 1.389.709 2.61 1.784 3.328L7.056 29.671l1.889.657 3.747-10.773c1.082.283 2.195.428 3.309.428 1.114 0 2.227-.145 3.309-.428l3.747 10.773 1.889-.657-3.75-10.783a12.808 12.808 0 0 0 3.996-2.696zM16 6a1 1 0 1 1 0 2 1 1 0 0 1 0-2zm-2.649 11.66l2.328-6.692c.108.009.211.032.321.032.11 0 .213-.023.321-.032l2.328 6.692a11.066 11.066 0 0 1-5.298 0z"/></symbol><symbol viewBox="0 0 32 32" class="agicon" id="archive" xmlns="http://www.w3.org/2000/svg"><path d="M13 14h6v2h-6z"/><path d="M1 5v5h2v17h6v-1h14v1h6V10h2V5H1zm4 19V12h22v12H5z"/></symbol><symbol viewBox="0 0 32 32" class="ahicon" id="arrow-down" xmlns="http://www.w3.org/2000/svg"><path class="ahst0" d="M10.7 19.9l-1.4 1.4L16 28l6.7-6.7-1.4-1.4-4.3 4.3V4.1h-2v20.1z"/></symbol><symbol viewBox="0 0 32 32" class="aiicon" id="arrow-left" xmlns="http://www.w3.org/2000/svg"><path class="aist0" d="M15.2 10.8l-1.4-1.5-6.7 6.8 6.7 6.7 1.4-1.4-4.3-4.3H25v-2H10.9z"/></symbol><symbol viewBox="0 0 32 32" class="ajicon" id="arrow-right" xmlns="http://www.w3.org/2000/svg"><path class="ajst0" d="M16.9 21.4l1.3 1.4 6.8-6.7-6.8-6.7-1.3 1.4 4.3 4.3H7.1v2h14.1z"/></symbol><symbol viewBox="0 0 32 32" class="akicon" id="arrow-up" xmlns="http://www.w3.org/2000/svg"><path class="akst0" d="M21.3 12.2l1.4-1.4L16 4.1l-6.7 6.7 1.4 1.4L15 7.9V28h2V7.9z"/></symbol><symbol viewBox="0 0 32 32" class="alicon" id="attachment" xmlns="http://www.w3.org/2000/svg"><path d="M8.003 30c-1.876 0-3.639-.753-4.963-2.12-2.711-2.801-2.711-7.358 0-10.16L15.62 4.726C17.321 2.968 19.586 2 21.997 2c2.411 0 4.676.968 6.377 2.726 3.491 3.606 3.492 9.475.001 13.082L18.128 28.392 16.692 27l10.247-10.583c2.748-2.839 2.748-7.46-.001-10.3C25.616 4.752 23.861 4 21.997 4c-1.864 0-3.619.752-4.941 2.117L4.477 19.111c-1.968 2.034-1.969 5.344 0 7.377A4.875 4.875 0 0 0 8.003 28c1.33 0 2.582-.537 3.525-1.511l9.409-9.719c1.189-1.228 1.188-3.226 0-4.453-1.131-1.168-3.09-1.169-4.222-.001L9.64 19.624l-1.437-1.392 7.074-7.307a4.902 4.902 0 0 1 3.547-1.515c1.342 0 2.602.538 3.548 1.515 1.931 1.995 1.932 5.24 0 7.235l-9.408 9.718A6.85 6.85 0 0 1 8.003 30z"/></symbol><symbol viewBox="0 0 32 32" class="amicon" id="audio" xmlns="http://www.w3.org/2000/svg"><path d="M5 10v12h7l9 9V1l-9 9H5zm5 10H7v-8h3v8zm12-7v6c1.654 0 3-1.346 3-3s-1.346-3-3-3z"/></symbol><symbol viewBox="0 0 32 32" class="anicon" id="audio-file" xmlns="http://www.w3.org/2000/svg"><path d="M3 3v26h26V3H3zm2 2h22v18H5V5z"/><path d="M13 9v7.779A2.978 2.978 0 0 0 11 16c-1.655 0-3 1.344-3 3s1.345 3 3 3 3-1.344 3-3v-8.182l9-1.637v5.598A2.978 2.978 0 0 0 21 14c-1.655 0-3 1.344-3 3s1.345 3 3 3 3-1.344 3-3V6L13 8v1zm-2 12c-1.102 0-2-.897-2-2s.898-2 2-2 2 .897 2 2-.898 2-2 2zm10-2c-1.103 0-2-.897-2-2s.897-2 2-2 2 .898 2 2-.897 2-2 2z"/></symbol><symbol viewBox="0 0 32 32" class="aoicon" id="bar-chart" xmlns="http://www.w3.org/2000/svg"><path d="M2 26V5H1v22h30v-1z"/><path d="M4 16h7v8H4zm16-8h-7v16h7V8zm-2 14h-3V10h3v12zm4-9h7v1h-7zm0 2h7v1h-7zm0 2h7v1h-7zm0 2h7v1h-7zm0 2h7v1h-7zm0 2h7v1h-7z"/></symbol><symbol viewBox="0 0 32 32" class="apicon" id="bee" xmlns="http://www.w3.org/2000/svg"><path d="M11.843 14h8.313c-.896-1.205-2.423-2-4.157-2-1.733 0-3.259.795-4.156 2zm-.81 2a3.936 3.936 0 0 0-.033.5V18h10v-1.5c0-.169-.012-.336-.033-.5h-9.934zM11 21.5c0 .169.012.336.033.5h9.935a4.13 4.13 0 0 0 .032-.5V20H11v1.5zm5 4.5c1.734 0 3.26-.795 4.157-2h-8.313c.896 1.205 2.422 2 4.156 2zM3.23 15.049a3.609 3.609 0 0 0-1.955 4.721A3.609 3.609 0 0 0 4.606 22h.014a3.602 3.602 0 0 0 2.548-1.057c.346-.347.606-.745.783-1.173L11 12l-7.77 3.049zm3.797 4.338A2.605 2.605 0 0 1 4.606 21a2.615 2.615 0 0 1-1.01-5.02l5.636-2.213-2.205 5.62zm23.698-2.383a3.609 3.609 0 0 0-1.955-1.955L21 12l3.049 7.77a3.608 3.608 0 0 0 3.33 2.23h.014a3.616 3.616 0 0 0 2.548-1.057c.347-.347.606-.745.783-1.173a3.597 3.597 0 0 0 .001-2.766zm-.924 2.384a2.616 2.616 0 0 1-1.412 1.414 2.613 2.613 0 0 1-2.004-.001 2.615 2.615 0 0 1-1.407-1.396l-2.211-5.637 5.618 2.205a2.59 2.59 0 0 1 1.415 1.414c.132.32.2.656.199 1.001a2.6 2.6 0 0 1-.198 1zM13.5 11a2 2 0 1 0 .001-3.999A2 2 0 0 0 13.5 11zm0-3c.551 0 1 .449 1 1s-.449 1-1 1c-.551 0-1-.449-1-1s.449-1 1-1zm5 3a2 2 0 1 0 .001-3.999A2 2 0 0 0 18.5 11zm0-3c.551 0 1 .449 1 1s-.449 1-1 1c-.551 0-1-.449-1-1s.449-1 1-1z"/></symbol><symbol viewBox="0 0 32 32" class="aqicon" id="blog" xmlns="http://www.w3.org/2000/svg"><path d="M15 13h-2l1-4h-2l-1 4v4h4zm6 0h-2l1-4h-2l-1 4v4h4z"/><path d="M3 3v20l6 6h20V3H3zm24 24H10v-5H5V5h22v22z"/></symbol><symbol viewBox="0 0 32 32" class="aricon" id="bold" xmlns="http://www.w3.org/2000/svg"><path d="M23 16c2.126-1.248 4-3.335 4-5.849C27 6.26 24.168 3 20 3H5v26h15c4.168 0 7-3.26 7-7.151 0-2.514-1.874-4.601-4-5.849zm-8 11h-4V17h4c2.98 0 5 2.205 5 5.052C20 24.899 17.98 27 15 27zm0-12h-4V5h4c2.98 0 5 2.205 5 5.052C20 12.899 17.98 15 15 15z"/></symbol><symbol viewBox="0 0 32 32" class="asicon" id="bookmark" xmlns="http://www.w3.org/2000/svg"><path d="M8 1H4v30h24V1H8zm18 28H10V3h6v14l4-4 4 4V3h2v26z"/></symbol><symbol viewBox="0 0 32 32" class="aticon" id="bulleted-list" xmlns="http://www.w3.org/2000/svg"><path d="M8 6h23v2H8zm0 9h23v2H8zm0 9h23v2H8z"/><circle cx="3" cy="7" r="2"/><circle cx="3" cy="16" r="2"/><circle cx="3" cy="25" r="2"/></symbol><symbol viewBox="0 0 32 32" class="auicon" id="calendar" xmlns="http://www.w3.org/2000/svg"><path d="M16.893 17.882a9.184 9.184 0 0 1-1.135.848c-.412.265-.807.536-1.187.815-.79.539-1.413 1.172-1.87 1.899-.457.729-.691 1.582-.701 2.556h7.983v-1.715h-5.695c.078-.257.222-.5.436-.73.209-.231.458-.451.74-.665.286-.213.594-.425.928-.638.335-.213.669-.437 1.004-.671.333-.235.657-.489.969-.758.309-.27.589-.563.833-.881a4.11 4.11 0 0 0 .586-1.05A3.6 3.6 0 0 0 20 15.614c0-.38-.062-.782-.183-1.202a3.304 3.304 0 0 0-.628-1.169 3.447 3.447 0 0 0-1.16-.89c-.477-.235-1.075-.353-1.787-.353-.656 0-1.234.116-1.729.345a3.678 3.678 0 0 0-1.262.949 3.988 3.988 0 0 0-.775 1.438 6.04 6.04 0 0 0-.26 1.806h1.903c.013-.413.054-.8.125-1.16.074-.358.185-.668.335-.932.149-.264.351-.471.601-.622.25-.149.564-.228.943-.228.412 0 .745.071 1.002.211.256.141.457.315.601.521.144.208.242.431.293.673.049.241.074.468.074.68a2.326 2.326 0 0 1-.352 1.219 4.4 4.4 0 0 1-.848.982z"/><path d="M1 4v24h30V4H1zm28 22H3V10h26v16z"/></symbol><symbol viewBox="0 0 32 32" class="avicon" id="camera" xmlns="http://www.w3.org/2000/svg"><path d="M11 6V4H5v2H1v20h30V6H11zm18 18H3V8h26v16z"/><path d="M21 22.5c3.592 0 6.5-2.908 6.5-6.5S24.592 9.5 21 9.5a6.5 6.5 0 0 0 0 13zm0-12c3.033 0 5.5 2.467 5.5 5.5s-2.467 5.5-5.5 5.5-5.5-2.467-5.5-5.5 2.467-5.5 5.5-5.5z"/><path d="M21 19.5c1.934 0 3.5-1.566 3.5-3.5s-1.566-3.5-3.5-3.5a3.5 3.5 0 1 0 0 7zm0-4.5a1 1 0 1 1 0 2 1 1 0 0 1 0-2z"/></symbol><symbol viewBox="0 0 100 100" class="awicon" id="caret" xmlns="http://www.w3.org/2000/svg"><path class="awst0" d="M100.2 27.3H.2l50 48z"/></symbol><symbol viewBox="0 0 32 32" class="axicon" id="catalog" xmlns="http://www.w3.org/2000/svg"><path d="M21 3c-2 0-4 1-5 2-1-1-3-2-5-2H3v24h8c2 0 4 1 5 2 1-1 3-2 5-2h8V3h-8zm-5 23.484C14.657 25.649 12.869 25 11 25H5V5h6c1.359 0 2.891.719 3.586 1.414L16 7.829v18.655zM26 20h-7v-1h7v1zm0-3h-7v-1h7v1zm0-3h-7v-1h7v1zm0-3h-7v-1h7v1z"/></symbol><symbol viewBox="0 0 32 32" class="ayicon" id="center-align" xmlns="http://www.w3.org/2000/svg"><path d="M5 6h22v2H5zm4 6h14v2H9zm-6 6h26v2H3zm6 6h14v2H9z"/></symbol><symbol viewBox="0 0 32 32" class="azicon" id="chat-message" xmlns="http://www.w3.org/2000/svg"><path d="M24.484 4.515C22.313 2.343 19.313 1 16 1S9.686 2.343 7.516 4.515C5.344 6.687 4 9.686 4 13s1.344 6.313 3.516 8.485A11.955 11.955 0 0 0 16 25v6l8.484-9.016C26.656 19.685 28 16.508 28 13c0-3.314-1.344-6.313-3.516-8.485zm-1.457 16.098L18 25.956V23h-2a9.927 9.927 0 0 1-7.07-2.93C7.041 18.182 6 15.671 6 13s1.041-5.182 2.93-7.071S13.329 3 16 3s5.182 1.04 7.07 2.93A9.93 9.93 0 0 1 26 13c0 2.881-1.055 5.583-2.973 7.613z"/><circle cx="16" cy="13" r="1.5"/><circle cx="21" cy="13" r="1.5"/><circle cx="11" cy="13" r="1.5"/></symbol><symbol viewBox="0 0 32 32" class="baicon" id="checklist" xmlns="http://www.w3.org/2000/svg"><path d="M3 3v20l6 6h20V3H3zm24 24H10v-5H5V5h22v22z"/><path d="M22.707 12.707l-1.414-1.414L14 18.586l-3.293-3.293-1.414 1.414L14 21.414z"/></symbol><symbol viewBox="0 0 32 32" class="bbicon" id="checkout-cart" xmlns="http://www.w3.org/2000/svg"><path d="M25.414 12l-6.707-6.707-1.414 1.414L22.586 12H9.414l5.293-5.293-1.414-1.414L6.586 12H1v3h2l2 15h22l2-15h2v-3h-5.586zm-.165 16H6.751L5.284 17h21.432l-1.467 11z"/><path d="M11 19h1v7h-1zm3 0h1v7h-1zm3 0h1v7h-1zm3 0h1v7h-1z"/></symbol><symbol viewBox="0 0 32 32" class="bcicon" id="chevron-down" xmlns="http://www.w3.org/2000/svg"><path class="bcst0" d="M16 17.6l-6.3-6.3L8 13l8 7.9 7.9-7.9-1.6-1.7z"/></symbol><symbol viewBox="0 0 32 32" class="bdicon" id="client" xmlns="http://www.w3.org/2000/svg"><path d="M19 5l-2 1 4 6H4v3h13v1H1v3h16v1H4v3h13v1H7v3h16l8-2V12z"/></symbol><symbol viewBox="0 0 32 32" class="beicon" id="close" xmlns="http://www.w3.org/2000/svg"><path d="M20.293 10.293L16 14.586l-4.293-4.293-1.414 1.414L14.586 16l-4.293 4.293 1.414 1.414L16 17.414l4.293 4.293 1.414-1.414L17.414 16l4.293-4.293z"/><path d="M16 2C8.269 2 2 8.269 2 16s6.269 14 14 14 14-6.269 14-14S23.731 2 16 2zm0 26C9.383 28 4 22.617 4 16S9.383 4 16 4s12 5.383 12 12-5.383 12-12 12z"/></symbol><symbol viewBox="0 0 32 32" class="bficon" id="close-modal" xmlns="http://www.w3.org/2000/svg"><path d="M26.5 2L16 12.5 5.5 2 2 5.5 12.5 16 2 26.5 5.5 30 16 19.5 26.5 30l3.5-3.5L19.5 16 30 5.5z"/></symbol><symbol viewBox="0 0 32 32" class="bgicon" id="cloud" xmlns="http://www.w3.org/2000/svg"><path d="M26.446 12.604A8.438 8.438 0 0 0 18 5c-4.162 0-7.691 3.083-8.374 7.086A7.45 7.45 0 0 0 8.5 12C4.364 12 1 15.364 1 19.5S4.364 27 8.5 27h15c4.136 0 7.5-3.364 7.5-7.5a7.472 7.472 0 0 0-4.554-6.896zM23.5 25h-15C5.467 25 3 22.533 3 19.5S5.467 14 8.5 14c.575 0 1.146.092 1.699.271l1.277.416.032-1.344C11.592 9.846 14.504 7 18 7a6.458 6.458 0 0 1 6.491 6.338l.017.711.676.217A5.481 5.481 0 0 1 29 19.5c0 3.033-2.467 5.5-5.5 5.5z"/></symbol><symbol viewBox="0 0 32 32" class="bhicon" id="code" xmlns="http://www.w3.org/2000/svg"><path d="M8.586 8.586L1.171 16l7.415 7.414 2.828-2.828L6.829 16l4.585-4.586zm14.828 0l-2.828 2.828L25.171 16l-4.585 4.586 2.828 2.828L30.829 16z"/></symbol><symbol viewBox="0 0 32 32" class="biicon" id="compass" xmlns="http://www.w3.org/2000/svg"><path d="M16 6C10.478 6 6 10.479 6 16c0 5.523 4.478 10 10 10 5.523 0 10-4.477 10-10 0-5.521-4.477-10-10-10zm2 12l-8 4 4-8 8-4-4 8z"/><path d="M16 2C8.268 2 2 8.268 2 16s6.268 14 14 14 14-6.268 14-14S23.732 2 16 2zm0 26C9.383 28 4 22.617 4 16S9.383 4 16 4s12 5.383 12 12-5.383 12-12 12z"/><circle cx="16" cy="16" r="1"/></symbol><symbol viewBox="0 0 32 32" class="bjicon" id="compressed-file" xmlns="http://www.w3.org/2000/svg"><path d="M3 3v26h26V3H3zm2 2h22v18H5V5z"/><path d="M15 9h2v1h-2zm0-2h2v1h-2zm0 4h2v1h-2zm0 2h2v1h-2zm0 2l-1 4v2h4v-2l-1-4z"/></symbol><symbol viewBox="0 0 32 32" class="bkicon" id="configure" xmlns="http://www.w3.org/2000/svg"><path d="M12.858 7C12.412 5.278 10.861 4 9 4S5.588 5.278 5.142 7H1v2h4.142c.446 1.722 1.997 3 3.858 3s3.412-1.278 3.858-3H31V7H12.858zM9 9a1 1 0 1 1 0-2 1 1 0 0 1 0 2zm14 3a3.99 3.99 0 0 0-3.858 3H1v2h18.142c.446 1.722 1.997 3 3.858 3s3.412-1.278 3.858-3H31v-2h-4.142A3.99 3.99 0 0 0 23 12zm0 5a1 1 0 1 1 0-2 1 1 0 0 1 0 2zM9 20a3.99 3.99 0 0 0-3.858 3H1v2h4.142c.446 1.722 1.997 3 3.858 3s3.412-1.278 3.858-3H31v-2H12.858A3.99 3.99 0 0 0 9 20zm0 5a1 1 0 1 1 0-2 1 1 0 0 1 0 2z"/></symbol><symbol viewBox="0 0 32 32" class="blicon" id="confirm" xmlns="http://www.w3.org/2000/svg"><path d="M14 18.586l-3.293-3.293-1.414 1.414L14 21.414l8.707-8.707-1.414-1.414z"/><path d="M16 2C8.269 2 2 8.269 2 16s6.269 14 14 14 14-6.269 14-14S23.731 2 16 2zm0 26C9.383 28 4 22.617 4 16S9.383 4 16 4s12 5.383 12 12-5.383 12-12 12z"/></symbol><symbol viewBox="0 0 32 32" class="bmicon" id="copy" xmlns="http://www.w3.org/2000/svg"><path d="M21 7V1H5v24h6v6h16V7h-6zM11 23H7V3h12v4h-8v16zm14 6H13V9h12v20z"/><path d="M15 13h8v1h-8zm0 2h8v1h-8zm0 2h8v1h-8zm0 2h4v1h-4z"/></symbol><symbol viewBox="0 0 32 32" class="bnicon" id="create-new" xmlns="http://www.w3.org/2000/svg"><path d="M15 24h2v-5h5v-2h-5v-5h-2v5h-5v2h5z"/><path d="M1 4v24h30V4H1zm28 22H3V10h26v16z"/></symbol><symbol viewBox="0 0 32 32" class="boicon" id="cut" xmlns="http://www.w3.org/2000/svg"><path d="M27 13H17V8.858A3.99 3.99 0 0 0 20 5a4 4 0 0 0-8 0 3.99 3.99 0 0 0 3 3.858V13c-1.106 0-2 .895-2 2H8.858A3.99 3.99 0 0 0 5 12a4 4 0 0 0 0 8 3.99 3.99 0 0 0 3.858-3H13v10l4 4V17h14l-4-4zM5 18c-1.103 0-2-.896-2-2s.897-2 2-2 2 .896 2 2-.897 2-2 2zm10-2a1 1 0 1 1 0-2 1 1 0 0 1 0 2zm1-9a2 2 0 1 1 .001-4.001A2 2 0 0 1 16 7z"/></symbol><symbol viewBox="0 0 32 32" class="bpicon" id="dashboard" xmlns="http://www.w3.org/2000/svg"><path d="M12.465 21.535A4.968 4.968 0 0 1 11 18c0-2.757 2.243-5 5-5s5 2.243 5 5a4.968 4.968 0 0 1-1.465 3.535l1.414 1.414A6.953 6.953 0 0 0 23 18c0-3.86-3.141-7-7-7s-7 3.14-7 7c0 1.87.729 3.627 2.051 4.949l1.414-1.414z"/><path d="M15 25h2l-1-9z"/><path d="M1 4v24h30V4H1zm28 22H3V10h26v16z"/></symbol><symbol viewBox="0 0 32 32" class="bqicon" id="data" xmlns="http://www.w3.org/2000/svg"><path d="M1 9h2v14H1zm13.061 2.354a4.665 4.665 0 0 0-1.529-1.692C11.877 9.221 11.033 9 10.001 9c-1.034 0-1.878.221-2.531.663a4.647 4.647 0 0 0-1.529 1.692 7.2 7.2 0 0 0-.744 2.26C5.065 14.436 5 15.231 5 16s.065 1.564.196 2.384c.131.821.379 1.574.744 2.26.364.687.874 1.25 1.529 1.692.654.443 1.498.664 2.532.664 1.032 0 1.876-.221 2.53-.664a4.657 4.657 0 0 0 1.529-1.692 7.198 7.198 0 0 0 .743-2.26c.133-.82.197-1.615.197-2.384s-.064-1.564-.196-2.385a7.238 7.238 0 0 0-.743-2.261zM12.521 18a6.33 6.33 0 0 1-.424 1.644c-.199.468-.471.84-.816 1.115-.344.276-.771.413-1.279.413-.524 0-.956-.138-1.292-.413-.338-.275-.607-.647-.807-1.115A6.252 6.252 0 0 1 7.48 18a15.284 15.284 0 0 1-.124-2c0-.705.041-1.369.124-1.991.082-.622.223-1.17.423-1.645.199-.474.469-.849.807-1.125.336-.276.768-.413 1.292-.413.509 0 .935.138 1.279.413.346.275.617.651.816 1.125.199.475.341 1.023.424 1.645.083.622.124 1.286.124 1.991a15.46 15.46 0 0 1-.124 2zm18.283-4.385a7.224 7.224 0 0 0-.743-2.26 4.665 4.665 0 0 0-1.529-1.692C27.877 9.221 27.033 9 26.001 9c-1.034 0-1.878.221-2.531.663a4.647 4.647 0 0 0-1.529 1.692 7.2 7.2 0 0 0-.744 2.26C21.065 14.436 21 15.231 21 16s.065 1.564.196 2.384c.131.821.379 1.574.744 2.26.364.687.874 1.25 1.529 1.692.654.443 1.498.664 2.532.664 1.032 0 1.876-.221 2.53-.664a4.657 4.657 0 0 0 1.529-1.692 7.198 7.198 0 0 0 .743-2.26c.132-.82.197-1.615.197-2.384s-.065-1.564-.196-2.385zM28.521 18a6.33 6.33 0 0 1-.424 1.644c-.199.468-.471.84-.816 1.115-.344.276-.771.413-1.279.413-.524 0-.956-.138-1.292-.413-.338-.275-.607-.647-.807-1.115A6.252 6.252 0 0 1 23.48 18a15.284 15.284 0 0 1-.124-2c0-.705.041-1.369.124-1.991.082-.622.223-1.17.423-1.645.199-.474.469-.849.807-1.125.336-.276.768-.413 1.292-.413.509 0 .936.138 1.279.413.346.275.617.651.816 1.125.199.475.341 1.023.424 1.645.083.622.124 1.286.124 1.991 0 .705-.041 1.372-.124 2zM17 9h2v14h-2z"/></symbol><symbol viewBox="0 0 32 32" class="bricon" id="database" xmlns="http://www.w3.org/2000/svg"><path d="M3 3v26h26V3H3zm24 24H5v-6h22v6zm0-8H5v-6h22v6zM24 7a1 1 0 1 1 0 2 1 1 0 0 1 0-2z"/><circle cx="24" cy="16" r="1"/><circle cx="24" cy="24" r="1"/></symbol><symbol viewBox="0 0 32 32" class="bsicon" id="debug" xmlns="http://www.w3.org/2000/svg"><path d="M31 15h-2.051C28.462 8.621 23.379 3.538 17 3.051V1h-2v2.051C8.621 3.538 3.538 8.621 3.051 15H1v2h2.051C3.538 23.379 8.621 28.462 15 28.949V31h2v-2.051c6.379-.487 11.462-5.57 11.949-11.949H31v-2zm-4.051 0h-3.018A7.995 7.995 0 0 0 17 8.069V5.051c5.268.477 9.472 4.681 9.949 9.949zm-4.029 2A7.004 7.004 0 0 1 17 22.92V19h-2v3.92A7.004 7.004 0 0 1 9.08 17H13v-2H9.08A7.004 7.004 0 0 1 15 9.08V13h2V9.08A7.004 7.004 0 0 1 22.92 15H19v2h3.92zM15 5.051v3.018A7.995 7.995 0 0 0 8.069 15H5.051C5.528 9.732 9.732 5.528 15 5.051zM5.051 17h3.018A7.995 7.995 0 0 0 15 23.931v3.018C9.732 26.472 5.528 22.268 5.051 17zM17 26.949v-3.018A7.995 7.995 0 0 0 23.931 17h3.018c-.477 5.268-4.681 9.472-9.949 9.949z"/></symbol><symbol viewBox="0 0 32 32" class="bticon" id="deploy" xmlns="http://www.w3.org/2000/svg"><path d="M30.707 8.293L24 1.586l-6.707 6.707 1.414 1.414L23 5.414V19c0 5.514-4.486 10-10 10S3 24.514 3 19a9.934 9.934 0 0 1 2.929-7.071l-1.414-1.414A11.92 11.92 0 0 0 1 19c0 6.617 5.383 12 12 12s12-5.383 12-12V5.414l4.293 4.293 1.414-1.414z"/><circle cx="13" cy="19" r="3"/></symbol><symbol viewBox="0 0 32 32" class="buicon" id="document" xmlns="http://www.w3.org/2000/svg"><path d="M18 1H6v30h20V9l-8-8zm6 28H8V3h9v7h7v19z"/><path d="M10 13h12v1H10zm0 2h12v1H10zm0 2h6v1h-6z"/></symbol><symbol viewBox="0 0 32 32" class="bvicon" id="download" xmlns="http://www.w3.org/2000/svg"><path d="M24.708 13.707l-1.414-1.415L17 18.587V2h-2v16.585l-6.292-6.293-1.414 1.415 8.707 8.707z"/><path d="M29 19v8H3v-8H1v12h30V19z"/></symbol><symbol viewBox="0 0 32 32" class="bwicon" id="edit" xmlns="http://www.w3.org/2000/svg"><path d="M22 4l3-3 6 6-3 3zM5 21l6 6 15-15-6-6L5 21zm6 3.171L7.828 21 20 8.829 23.172 12 11 24.171zM1 31l5-2-3-3z"/></symbol><symbol viewBox="0 0 32 32" class="bxicon" id="email" xmlns="http://www.w3.org/2000/svg"><path d="M16 4L1 12v16h30V12L16 4zm-9 7h18v4.2L16 20l-9-4.8V11zm22 15H3V14.066L16 21l13-6.934V26z"/></symbol><symbol viewBox="0 0 32 32" class="byicon" id="file" xmlns="http://www.w3.org/2000/svg"><path d="M18 1H6v30h20V9l-8-8zm6 28H8V3h9v7h7v19z"/></symbol><symbol viewBox="0 0 32 32" class="bzicon" id="filter" xmlns="http://www.w3.org/2000/svg"><path d="M31 1H1v4l12 12v14l6-6v-3.379A3.974 3.974 0 0 0 22 23c2.21 0 4-1.79 4-4s-1.79-4-4-4c-.423 0-.822.083-1.205.205L31 5V1zm-7 18c0 1.103-.898 2-2 2-1.103 0-2-.897-2-2s.897-2 2-2c1.102 0 2 .897 2 2zm-6.414-3.414l-.586.585v8l-2 2v-10l-.586-.585L3.829 5h24.343L17.586 15.586z"/></symbol><symbol viewBox="0 0 32 32" class="caicon" id="flow" xmlns="http://www.w3.org/2000/svg"><path d="M24 19a5.001 5.001 0 0 0-4.899 4H12.9a4.975 4.975 0 0 0-.731-1.754l9.078-9.077A4.965 4.965 0 0 0 24 13a5 5 0 0 0 5-5 5 5 0 0 0-9.899-1H12.9A5 5 0 0 0 3 8a5 5 0 0 0 9.899 1H19.1c.13.638.384 1.23.731 1.754l-9.078 9.077A4.965 4.965 0 0 0 8 19a5 5 0 0 0-5 5 5 5 0 0 0 9.899 1H19.1a5 5 0 0 0 9.899-1c0-2.762-2.237-5-4.999-5zm0-14a3 3 0 1 1 0 6 3 3 0 0 1 0-6zM8 11a3 3 0 1 1 0-6 3 3 0 0 1 0 6zm0 16a3 3 0 1 1 0-6 3 3 0 0 1 0 6z"/></symbol><symbol viewBox="0 0 32 32" class="cbicon" id="folder" xmlns="http://www.w3.org/2000/svg"><path d="M13 8V5H1v22h30V8H13zm16 17H3V11h26v14z"/></symbol><symbol viewBox="0 0 32 32" class="ccicon" id="forum" xmlns="http://www.w3.org/2000/svg"><path d="M27.484 4.515C25.313 2.343 22.313 1 19 1s-6.314 1.343-8.484 3.515A11.961 11.961 0 0 0 7 13c0 1.045.148 2.054.398 3.02C7.267 16.011 7.135 16 7 16a5.981 5.981 0 0 0-4.242 1.758A5.978 5.978 0 0 0 1 22c0 1.754.672 3.343 1.758 4.492L7 31v-3a5.981 5.981 0 0 0 4.242-1.758 5.99 5.99 0 0 0 1.614-2.948A11.926 11.926 0 0 0 19 25v6l8.484-9.016C29.656 19.685 31 16.508 31 13c0-3.314-1.344-6.313-3.516-8.485zm-1.457 16.098L21 25.956V23h-2c-2.24 0-4.361-.74-6.104-2.09a5.985 5.985 0 0 0-1.654-3.152 6.032 6.032 0 0 0-1.552-1.115A9.986 9.986 0 0 1 9 13c0-2.671 1.041-5.182 2.93-7.071S16.329 3 19 3s5.182 1.04 7.07 2.93A9.93 9.93 0 0 1 29 13c0 2.881-1.055 5.583-2.973 7.613z"/><circle cx="19" cy="13" r="1.5"/><circle cx="24" cy="13" r="1.5"/><circle cx="14" cy="13" r="1.5"/></symbol><symbol viewBox="0 0 32 32" class="cdicon" id="forward" xmlns="http://www.w3.org/2000/svg"><path d="M15.293 10.707L19.586 15H8v2h11.586l-4.293 4.293 1.414 1.414L23.414 16l-6.707-6.707z"/><path d="M16 2C8.269 2 2 8.269 2 16s6.269 14 14 14 14-6.269 14-14S23.731 2 16 2zm0 26C9.383 28 4 22.617 4 16S9.383 4 16 4s12 5.383 12 12-5.383 12-12 12z"/></symbol><symbol viewBox="0 0 32 32" class="ceicon" id="gauge" xmlns="http://www.w3.org/2000/svg"><path d="M16 2C8.268 2 2 8.268 2 16s6.268 14 14 14 14-6.268 14-14S23.732 2 16 2zm0 26C9.383 28 4 22.617 4 16S9.383 4 16 4s12 5.383 12 12-5.383 12-12 12z"/><path d="M15 17l2 2 6-10-10 6z"/></symbol><symbol viewBox="0 0 32 32" class="cficon" id="get-information" xmlns="http://www.w3.org/2000/svg"><path d="M18 14h-6v2h2v6h-2v2h8v-2h-2z"/><circle cx="16" cy="10" r="2"/><path d="M16 2C8.269 2 2 8.269 2 16s6.269 14 14 14 14-6.269 14-14S23.731 2 16 2zm0 26C9.383 28 4 22.617 4 16S9.383 4 16 4s12 5.383 12 12-5.383 12-12 12z"/></symbol><symbol viewBox="0 0 32 32" class="cgicon" id="glasses" xmlns="http://www.w3.org/2000/svg"><path d="M31 15h-1.09c-.478-2.836-2.941-5-5.91-5-1.176 0-2.27.344-3.196.93l-.136-.136C19.378 9.637 17.721 9 16 9s-3.378.637-4.707 1.831l-.098.098A5.96 5.96 0 0 0 8 10a5.999 5.999 0 0 0-5.91 5H1v2h1.09c.477 2.836 2.94 5 5.91 5 3.311 0 6-2.687 6-6a5.965 5.965 0 0 0-1.31-3.734A4.987 4.987 0 0 1 16 11c1.227 0 2.41.455 3.293 1.245l.019.019A5.958 5.958 0 0 0 18 16c0 3.313 2.69 6 6 6a5.999 5.999 0 0 0 5.91-5H31v-2zM8 20c-2.205 0-4-1.795-4-4s1.795-4 4-4 4 1.795 4 4-1.795 4-4 4zm16 0c-2.205 0-4-1.795-4-4s1.795-4 4-4 4 1.795 4 4-1.795 4-4 4z"/></symbol><symbol viewBox="0 0 32 32" class="chicon" id="group" xmlns="http://www.w3.org/2000/svg"><path d="M8 23c2.762 0 5-2.238 5-5s-2.238-5-5-5-5 2.238-5 5 2.238 5 5 5zm0-8c1.654 0 3 1.346 3 3s-1.346 3-3 3-3-1.346-3-3 1.346-3 3-3zm11 3c0 2.762 2.238 5 5 5s5-2.238 5-5-2.238-5-5-5-5 2.238-5 5zm5-3c1.654 0 3 1.346 3 3s-1.346 3-3 3-3-1.346-3-3 1.346-3 3-3zm-3-8c0-2.762-2.238-5-5-5s-5 2.238-5 5 2.238 5 5 5 5-2.238 5-5zm-5 3c-1.654 0-3-1.346-3-3s1.346-3 3-3 3 1.346 3 3-1.346 3-3 3zm-4 15H4a2 2 0 0 0-2 2v3h12v-3a2 2 0 0 0-2-2zm16 0h-8a2 2 0 0 0-2 2v3h12v-3a2 2 0 0 0-2-2z"/></symbol><symbol viewBox="0 0 32 32" class="ciicon" id="hat" xmlns="http://www.w3.org/2000/svg"><path d="M28 23v-7c0-6.627-5.375-12-12-12S4 9.373 4 16v7H1c0 2.766 2.241 5 4.995 5h20.01A4.998 4.998 0 0 0 31 23h-3zM6 23v-6h20v6H6z"/></symbol><symbol viewBox="0 0 32 32" class="cjicon" id="headphones" xmlns="http://www.w3.org/2000/svg"><path d="M27 17v4h2v-4h-1v-1.5c0-6.617-5.383-12-12-12S4 8.883 4 15.5V17H3v4h2v-5.5c0-6.065 4.935-11 11-11s11 4.935 11 11V17zM1 22h4v9H1zm26 0h4v9h-4z"/></symbol><symbol viewBox="0 0 32 32" class="ckicon" id="help" xmlns="http://www.w3.org/2000/svg"><path d="M16 2C8.269 2 2 8.269 2 16s6.269 14 14 14 14-6.269 14-14S23.731 2 16 2zm7 14a7.019 7.019 0 0 1-7 7 7.022 7.022 0 0 1-7-7 7.025 7.025 0 0 1 7-7 7.022 7.022 0 0 1 7 7zm-3.714-7.286C18.282 8.259 17.172 8 16 8s-2.282.259-3.286.714L9.766 5.766C11.586 4.653 13.715 4 16 4s4.414.653 6.234 1.766l-2.948 2.948zM8.714 19.286l-2.948 2.948C4.653 20.415 4 18.285 4 16s.653-4.415 1.766-6.234l2.948 2.948C8.26 13.718 8 14.828 8 16s.26 2.282.714 3.286zm4 4c1.004.455 2.114.714 3.286.714s2.282-.259 3.286-.714l2.948 2.948C20.414 27.347 18.285 28 16 28s-4.414-.653-6.234-1.766l2.948-2.948zm10.572-10.572l2.948-2.948C27.347 11.585 28 13.715 28 16s-.653 4.415-1.766 6.234l-2.948-2.948C23.74 18.282 24 17.172 24 16s-.26-2.282-.714-3.286z"/></symbol><symbol viewBox="0 0 32 32" class="clicon" id="home" xmlns="http://www.w3.org/2000/svg"><path d="M16 1L2 15l3 3v13h22V18l3-3L16 1zm9 28H7V16l9-9 9 9v13z"/><circle cx="16" cy="16" r="2"/></symbol><symbol viewBox="0 0 32 32" class="cmicon" id="idea" xmlns="http://www.w3.org/2000/svg"><path d="M16 1C9.924 1 5 5.924 5 12s4.924 11 11 11 11-4.924 11-11S22.076 1 16 1zm0 20c-4.963 0-9-4.038-9-9s4.037-9 9-9 9 4.038 9 9-4.037 9-9 9zm-4 3h8v4h-8zm4 7a2 2 0 0 0 2-2h-4a2 2 0 0 0 2 2z"/><path d="M16 19l4-6h-8l4 6zm0-1.803L13.868 14h4.264L16 17.197z"/></symbol><symbol viewBox="0 0 32 32" class="cnicon" id="image-file" xmlns="http://www.w3.org/2000/svg"><path d="M3 3v26h26V3H3zm2 2h22v18H5V5z"/><path d="M19 17l-7-7-5 5v6h18v-4l-3-3z"/><circle cx="23" cy="9" r="2"/></symbol><symbol viewBox="0 0 32 32" class="coicon" id="indent" xmlns="http://www.w3.org/2000/svg"><path d="M2.293 11.707L6.586 16l-4.293 4.293 1.414 1.414L9.414 16l-5.707-5.707zM11 6h2v20h-2zm4 3h12v2H15zm0 4h8v2h-8zm0 4h16v2H15zm0 4h8v2h-8z"/></symbol><symbol viewBox="0 0 32 32" class="cpicon" id="industry" xmlns="http://www.w3.org/2000/svg"><path d="M29 1h-4l-1 15h-7v-4l-8 4v-4l-8 4v15h30L29 1zM3 29V18h20.867l-.734 11H3z"/></symbol><symbol viewBox="0 0 32 32" class="cqicon" id="insecure" xmlns="http://www.w3.org/2000/svg"><path d="M19.293 15.293L16 18.586l-3.293-3.293-1.414 1.414L14.586 20l-3.293 3.293 1.414 1.414L16 21.414l3.293 3.293 1.414-1.414L17.414 20l3.293-3.293z"/><path d="M16 9a10.94 10.94 0 0 0-6 1.788V9c0-3.309 2.691-6 6-6 1.654 0 3.154.673 4.241 1.759l1.416-1.416A8 8 0 0 0 8 9v3.467A10.95 10.95 0 0 0 5 20c0 6.074 4.926 11 11 11 6.076 0 11-4.926 11-11S22.076 9 16 9zm0 20c-4.971 0-9-4.029-9-9s4.029-9 9-9 9 4.029 9 9-4.029 9-9 9z"/></symbol><symbol viewBox="0 0 32 32" class="cricon" id="insert" xmlns="http://www.w3.org/2000/svg"><path d="M29.293 22.293L25 26.586V13c0-6.617-5.383-12-12-12S1 6.383 1 13h2C3 7.486 7.486 3 13 3s10 4.486 10 10v13.586l-4.293-4.293-1.414 1.414L24 30.414l6.707-6.707-1.414-1.414z"/></symbol><symbol viewBox="0 0 32 32" class="csicon" id="inventory" xmlns="http://www.w3.org/2000/svg"><path d="M24 15V3H8v12H3v14h26V15h-5zM10 5h12v10H10V5zm17 22H5V17h22v10z"/><path d="M12 9h8v1h-8zm0 2h8v1h-8zm7 11h-6v-1h-1v2h8v-2h-1z"/></symbol><symbol viewBox="0 0 32 32" class="cticon" id="italic" xmlns="http://www.w3.org/2000/svg"><path d="M25 5V3H13v2h3.923l-6.346 22H7v2h12v-2h-4.423l6.346-22z"/></symbol><symbol viewBox="0 0 32 32" class="cuicon" id="justify" xmlns="http://www.w3.org/2000/svg"><path d="M5 24h22v2H5zm0-6h22v2H5zm0-6h22v2H5zm0-6h22v2H5z"/></symbol><symbol viewBox="0 0 32 32" class="cvicon" id="left-align" xmlns="http://www.w3.org/2000/svg"><path d="M1 6h22v2H1zm0 6h14v2H1zm0 6h26v2H1zm0 6h14v2H1z"/></symbol><symbol viewBox="0 0 32 32" class="cwicon" id="like" xmlns="http://www.w3.org/2000/svg"><path d="M22 4a6.99 6.99 0 0 0-6 3.408A6.99 6.99 0 0 0 10 4a7 7 0 0 0-7 7c0 1.933.761 3.706 2 5 2.815 2.94 11 12 11 12s8.185-9.06 11-12a7.224 7.224 0 0 0 2-5 7 7 0 0 0-7-7zm3.556 10.617C23.457 16.808 18.499 22.262 16 25.02c-2.499-2.757-7.457-8.211-9.556-10.403A5.204 5.204 0 0 1 5 11c0-2.757 2.243-5 5-5 1.768 0 3.369.911 4.285 2.437L16 11.294l1.715-2.857A4.962 4.962 0 0 1 22 6c2.757 0 5 2.243 5 5 0 1.36-.513 2.644-1.444 3.617z"/></symbol><symbol viewBox="0 0 32 32" class="cxicon" id="link" xmlns="http://www.w3.org/2000/svg"><path d="M28.95 3.05C27.683 1.784 25.933 1 24 1s-3.683.784-4.95 2.05l-3 3A6.982 6.982 0 0 0 14 11c0 1.206.286 2.359.808 3.364l-.443.443A7.316 7.316 0 0 0 11 14a6.982 6.982 0 0 0-4.95 2.05l-3 3C1.784 20.317 1 22.067 1 24s.784 3.683 2.05 4.95S6.067 31 8 31s3.683-.784 4.95-2.05l3-3A6.982 6.982 0 0 0 18 21a7.297 7.297 0 0 0-.808-3.364l.443-.443A7.316 7.316 0 0 0 21 18a6.982 6.982 0 0 0 4.95-2.05l3-3C30.216 11.683 31 9.933 31 8s-.784-3.683-2.05-4.95zM16 21c0 1.335-.52 2.591-1.464 3.536l-3 3C10.591 28.48 9.335 29 8 29s-2.591-.52-3.536-1.464C3.52 26.591 3 25.335 3 24s.52-2.591 1.464-3.536l3-3A4.971 4.971 0 0 1 11 16c.642 0 1.264.122 1.84.332l-4.254 4.254 2.828 2.828 4.254-4.254c.21.576.332 1.198.332 1.84zm11.536-9.464l-3 3A4.971 4.971 0 0 1 21 16a5.376 5.376 0 0 1-1.84-.332l4.254-4.254-2.828-2.828-4.254 4.254A5.376 5.376 0 0 1 16 11c0-1.335.52-2.591 1.464-3.536l3-3C21.409 3.52 22.665 3 24 3s2.591.52 3.536 1.464C28.48 5.409 29 6.665 29 8s-.52 2.591-1.464 3.536z"/></symbol><symbol viewBox="0 0 32 32" class="cyicon" id="list-view" xmlns="http://www.w3.org/2000/svg"><path d="M1 4v24h30V4H1zm28 22H3v-4h26v4zm0-6H3v-4h26v4zm0-6H3v-4h26v4z"/></symbol><symbol viewBox="0 0 32 32" class="czicon" id="location" xmlns="http://www.w3.org/2000/svg"><path d="M24.484 4.515A11.958 11.958 0 0 0 16 1a11.955 11.955 0 0 0-8.484 3.515A11.961 11.961 0 0 0 4 13c0 3.508 1.344 6.685 3.516 8.984L16 31l8.484-9.016C26.656 19.685 28 16.508 28 13c0-3.314-1.344-6.313-3.516-8.485zm-1.456 16.098L16 28.081 8.969 20.61C7.055 18.583 6 15.881 6 13a9.93 9.93 0 0 1 2.93-7.071A9.93 9.93 0 0 1 16 3a9.927 9.927 0 0 1 7.07 2.93A9.93 9.93 0 0 1 26 13c0 2.881-1.055 5.583-2.972 7.613z"/><circle cx="16" cy="13" r="4"/></symbol><symbol viewBox="0 0 32 32" class="daicon" id="log" xmlns="http://www.w3.org/2000/svg"><path d="M6 29h20v2H6zM6 1v26h20V1H6zm18 24H8V7h16v18z"/><path d="M10 15h12v1H10zm0-4h12v1H10zm0 8h12v1H10z"/></symbol><symbol viewBox="0 0 32 32" class="dbicon" id="manage" xmlns="http://www.w3.org/2000/svg"><path d="M27.5 16c0-.615-.062-1.213-.155-1.802L31 11l-3.105-5.098-4.359 1.424a11.471 11.471 0 0 0-3.569-2.109L19 1h-6l-.966 4.217a11.47 11.47 0 0 0-3.57 2.11L4.105 5.902 1 11l3.655 3.199A11.496 11.496 0 0 0 4.5 16c0 .615.062 1.213.155 1.802L1 21l3.106 5.098 4.358-1.424a11.46 11.46 0 0 0 3.57 2.11L13 31h6l.966-4.217a11.471 11.471 0 0 0 3.569-2.109l4.359 1.424L31 21l-3.655-3.197c.093-.589.155-1.188.155-1.803zm.916 5.397l-1.406 2.308-2.854-.932-1.078-.352-.855.744a9.464 9.464 0 0 1-2.947 1.742l-1.017.375-.242 1.056L17.406 29h-2.812l-.61-2.664-.242-1.056-1.017-.375a9.42 9.42 0 0 1-2.948-1.742l-.856-.743-1.078.353-2.853.932-1.406-2.308 2.388-2.09.83-.727-.172-1.09A9.651 9.651 0 0 1 6.5 16c0-.446.043-.934.13-1.49l.172-1.09-.83-.727-2.388-2.091L4.99 8.294l2.854.933 1.077.353.855-.744a9.43 9.43 0 0 1 2.948-1.742l1.017-.375.242-1.056L14.594 3h2.812l.61 2.664.242 1.056 1.017.375c1.087.4 2.079.986 2.947 1.742l.855.744 1.078-.352 2.854-.933 1.406 2.308-2.388 2.089-.831.727.173 1.091c.088.555.131 1.042.131 1.489s-.043.935-.131 1.49l-.173 1.091.831.727 2.389 2.089z"/><path d="M16 10c-3.314 0-6 2.685-6 6s2.686 6 6 6c3.315 0 6-2.685 6-6s-2.685-6-6-6zm0 8a2 2 0 1 1 .001-4.001A2 2 0 0 1 16 18z"/></symbol><symbol viewBox="0 0 32 32" class="dcicon" id="map" xmlns="http://www.w3.org/2000/svg"><path d="M21 7L11 5 1 7v22l10-2 10 2 10-2V5L21 7zm-1 17.8l-8-1.6V7.239l8 1.601V24.8zM3 8.64l7-1.399V23.2l-7 1.4V8.64zM22 24.8V8.84l7-1.4V23.4l-7 1.4z"/></symbol><symbol viewBox="0 0 32 32" class="ddicon" id="maximize" xmlns="http://www.w3.org/2000/svg"><path d="M1 4v24h30V4H1zm28 22H3V10h26v16z"/><path d="M18.707 21.707L25 15.414V20h2v-8h-8v2h4.586l-6.293 6.293z"/></symbol><symbol viewBox="0 0 32 32" class="deicon" id="menu-overflow" xmlns="http://www.w3.org/2000/svg"><circle cx="4" cy="16" r="3"/><circle cx="16" cy="16" r="3"/><circle cx="28" cy="16" r="3"/></symbol><symbol viewBox="0 0 32 32" class="dficon" id="menu-overflow-vertical" xmlns="http://www.w3.org/2000/svg"><circle cx="16" cy="4" r="3"/><circle cx="16" cy="16" r="3"/><circle cx="16" cy="28" r="3"/></symbol><symbol viewBox="0 0 32 32" class="dgicon" id="migrate" xmlns="http://www.w3.org/2000/svg"><path d="M24.707 16.293l-1.414 1.414L26.586 21H21V9l-8-8H1v30h20v-8h5.586l-3.293 3.293 1.414 1.414L30.414 22l-5.707-5.707zM19 29H3V3h9v7h7v11h-7v2h7v6z"/></symbol><symbol viewBox="0 0 32 32" class="dhicon" id="minimize" xmlns="http://www.w3.org/2000/svg"><path d="M1 4v24h30V4H1zm2 2h26v16H3V6z"/><path d="M13.293 10.293L7 16.586V12H5v8h8v-2H8.414l6.293-6.293z"/></symbol><symbol viewBox="0 0 32 32" class="diicon" id="mobile-phone" xmlns="http://www.w3.org/2000/svg"><path d="M7 1v30h18V1H7zm16 6v18H9V7h14zm-9-4h4v1h-4V3z"/></symbol><symbol viewBox="0 0 32 32" class="djicon" id="monitor" xmlns="http://www.w3.org/2000/svg"><path d="M1 4v24h30V4H1zm28 22H3V10h26v16z"/><path d="M16 24c4.484 0 7.9-2.417 10-6-2.1-3.583-5.516-6-10-6s-7.9 2.417-10 6c2.1 3.583 5.516 6 10 6zm0-11c3.627 0 6.74 1.77 8.826 5-2.086 3.23-5.199 5-8.826 5s-6.74-1.77-8.826-5c2.086-3.23 5.199-5 8.826-5z"/><path d="M16 21.5c1.934 0 3.5-1.566 3.5-3.5s-1.566-3.5-3.5-3.5a3.5 3.5 0 1 0 0 7zm0-4.667c.646 0 1.166.522 1.166 1.167a1.165 1.165 0 1 1-2.332 0c0-.645.52-1.167 1.166-1.167z"/></symbol><symbol viewBox="0 0 32 32" class="dkicon" id="move" xmlns="http://www.w3.org/2000/svg"><path d="M12 17v-2H5.414l2.293-2.293-1.414-1.414L1.586 16l4.707 4.707 1.414-1.414L5.414 17zm13.707-5.707l-1.414 1.414L26.586 15H20v2h6.586l-2.293 2.293 1.414 1.414L30.414 16zM17 26.586V20h-2v6.586l-2.293-2.293-1.414 1.414L16 30.414l4.707-4.707-1.414-1.414zM15 5.414V12h2V5.414l2.293 2.293 1.414-1.414L16 1.586l-4.707 4.707 1.414 1.414z"/></symbol><symbol viewBox="0 0 32 32" class="dlicon" id="music" xmlns="http://www.w3.org/2000/svg"><path d="M11 5v17.023A4.956 4.956 0 0 0 8 21a5 5 0 1 0 5 5V9.556l14-3.111v11.579A4.95 4.95 0 0 0 24 17a5 5 0 1 0 5 5V1L11 5zM8 29c-1.654 0-3-1.346-3-3s1.346-3 3-3 3 1.346 3 3-1.346 3-3 3zm16-4c-1.654 0-3-1.346-3-3s1.346-3 3-3 3 1.346 3 3-1.346 3-3 3z"/></symbol><symbol viewBox="0 0 32 32" class="dmicon" id="numbered-list" xmlns="http://www.w3.org/2000/svg"><path d="M8 6h23v2H8zm0 9h23v2H8zm0 9h23v2H8zM3 4H1v1h1v4H1v1h3V9H3zm0 11v1h1v-2H3zm-1 1h1v1H2zm-1 2v1h3v-1H2v-1H1zm1-5H1v1h2v-1zm1 10h1v1H3zm-1 1h1v1H2zm1 3h1v-2H3v1zm-2 0v1h2v-1H2zm1-5H1v1h2v-1z"/></symbol><symbol viewBox="0 0 32 32" class="dnicon" id="outdent" xmlns="http://www.w3.org/2000/svg"><path d="M7.292 10.292L1.585 16l5.707 5.706 1.414-1.414L4.414 16l4.292-4.293zM11 6h2v20h-2zm4 3h12v2H15zm0 4h8v2h-8zm0 4h16v2H15zm0 4h8v2h-8z"/></symbol><symbol viewBox="0 0 32 32" class="doicon" id="overview" xmlns="http://www.w3.org/2000/svg"><path d="M24 9a6.976 6.976 0 0 0-4.895 2h-1.383c-.347-.595-.984-1-1.723-1s-1.376.405-1.723 1h-1.383A6.968 6.968 0 0 0 8 9a7 7 0 1 0 7 7h2a7 7 0 1 0 7-7zM8 21c-2.757 0-5-2.243-5-5s2.243-5 5-5 5 2.243 5 5-2.243 5-5 5zm16 0c-2.757 0-5-2.243-5-5s2.243-5 5-5 5 2.243 5 5-2.243 5-5 5z"/></symbol><symbol viewBox="0 0 32 32" class="dpicon" id="password-key" xmlns="http://www.w3.org/2000/svg"><path d="M25 1L12.611 13.388A9 9 0 0 0 1 22a9 9 0 0 0 9 9 9 9 0 0 0 8.611-11.612L21 17v-2h2l8-8V1h-6zm4 5.171L22.172 13H19v3.171l-1.803 1.802-.848.848.348 1.147c.201.662.303 1.345.303 2.032 0 3.86-3.141 7-7 7s-7-3.14-7-7 3.141-7 7-7c.686 0 1.37.102 2.031.302l1.146.348.848-.848L25.828 3H29v3.171z"/><circle cx="8" cy="24" r="2"/><path d="M27.354 5.353l-6 6-.707-.707 6-6z"/></symbol><symbol viewBox="0 0 32 32" class="dqicon" id="paste" xmlns="http://www.w3.org/2000/svg"><path d="M21 7V1H5v24h6v6h16V7h-6zm4 22H13V9h12v20z"/><path d="M15 13h8v1h-8zm0 2h8v1h-8zm0 2h8v1h-8zm0 2h4v1h-4z"/></symbol><symbol viewBox="0 0 32 32" class="dricon" id="pause" xmlns="http://www.w3.org/2000/svg"><path d="M16 2C8.269 2 2 8.269 2 16s6.269 14 14 14 14-6.269 14-14S23.731 2 16 2zm0 26C9.383 28 4 22.617 4 16S9.383 4 16 4s12 5.383 12 12-5.383 12-12 12z"/><path d="M11 11h4v10h-4zm6 0h4v10h-4z"/></symbol><symbol viewBox="0 0 32 32" class="dsicon" id="payment-card" xmlns="http://www.w3.org/2000/svg"><path d="M1 6v20h30V6H1zm28 2v2H3V8h26zM3 24V13h26v11H3z"/><path d="M5 21h4v1H5zm5 0h4v1h-4z"/></symbol><symbol viewBox="0 0 32 32" class="dticon" id="pdf-file" xmlns="http://www.w3.org/2000/svg"><path d="M13.964 21.424a1.744 1.744 0 0 0-.584-.488 1.801 1.801 0 0 0-.84-.183c-.256 0-.491.051-.704.152-.213.102-.39.264-.528.488h-.016v-.529h-1.08v5.585h1.136v-1.96h.016c.139.203.316.355.532.46.216.104.452.155.708.155.304 0 .569-.059.796-.176a1.67 1.67 0 0 0 .568-.472c.152-.197.265-.424.34-.681a2.82 2.82 0 0 0 .112-.799 3.18 3.18 0 0 0-.112-.845 2.07 2.07 0 0 0-.344-.707zm-.728 2.008c-.032.16-.087.301-.164.42a.907.907 0 0 1-.304.293.906.906 0 0 1-.468.111.913.913 0 0 1-.464-.111.892.892 0 0 1-.308-.293 1.245 1.245 0 0 1-.168-.42 2.272 2.272 0 0 1-.052-.488c0-.17.016-.336.048-.495a1.26 1.26 0 0 1 .164-.425.869.869 0 0 1 .772-.416c.181 0 .335.039.46.117a.948.948 0 0 1 .308.303c.08.126.138.269.172.429.035.16.052.323.052.487 0 .165-.016.327-.048.488zm2.72-2.5c-.23.12-.42.279-.572.477a2.087 2.087 0 0 0-.344.684 2.774 2.774 0 0 0-.116.805c0 .287.039.564.116.832.077.266.192.502.344.707.152.206.345.369.58.488.235.12.507.18.816.18.272 0 .516-.049.732-.147a1.18 1.18 0 0 0 .524-.483h.016V25h1.08v-5.712h-1.136v2.08h-.016a1.22 1.22 0 0 0-.524-.46 1.644 1.644 0 0 0-.7-.156 1.7 1.7 0 0 0-.8.18zm1.568.789a.917.917 0 0 1 .3.291c.078.12.132.259.164.416a2.52 2.52 0 0 1 0 .988c-.032.16-.085.303-.16.428a.865.865 0 0 1-.3.301.906.906 0 0 1-.468.111.855.855 0 0 1-.452-.115 1.02 1.02 0 0 1-.312-.305 1.306 1.306 0 0 1-.18-.428 2.07 2.07 0 0 1-.056-.48c0-.17.017-.334.052-.492a1.34 1.34 0 0 1 .168-.42.888.888 0 0 1 .308-.295.919.919 0 0 1 .472-.113.867.867 0 0 1 .464.113zM20.236 25h1.136v-3.376h.784v-.761h-.784v-.247c0-.171.033-.292.1-.364.066-.072.177-.108.332-.108.144 0 .283.008.416.023v-.847c-.096-.006-.195-.012-.296-.02a3.861 3.861 0 0 0-.304-.012c-.464 0-.81.117-1.04.353-.229.234-.344.535-.344.903v.319h-.68v.761h.68V25z"/><path d="M18 1H6v30h20V9l-8-8zm6 28H8V3h9v7h7v19z"/></symbol><symbol viewBox="0 0 32 32" class="duicon" id="person" xmlns="http://www.w3.org/2000/svg"><path d="M16 9a4 4 0 1 0 0-8 4 4 0 0 0 0 8zm0-6c1.103 0 2 .897 2 2s-.897 2-2 2-2-.897-2-2 .898-2 2-2zm3 8h-6a2 2 0 0 0-2 2v8l2 2v7a1 1 0 0 0 1 1h4a1 1 0 0 0 1-1v-7l2-2v-8a2 2 0 0 0-2-2z"/></symbol><symbol viewBox="0 0 32 32" class="dvicon" id="phone-call" xmlns="http://www.w3.org/2000/svg"><path d="M24 1l-6 7 2 3-9 9-3-2-7 5 3 8c5-2 11-6 16-11S29 9 31 4l-7-3zm-5.414 17.586c-4.049 4.049-8.952 7.582-13.455 9.733l-1.719-4.584 4.627-3.306 1.852 1.234 1.364.91 1.159-1.16 9-9 1.159-1.159-.909-1.364-1.159-1.739 4.058-4.734 3.798 1.627c-2.148 4.527-5.7 9.467-9.775 13.542z"/></symbol><symbol viewBox="0 0 32 32" class="dwicon" id="pie-chart" xmlns="http://www.w3.org/2000/svg"><path d="M16 2v14H2c0 7.731 6.269 14 14 14s14-6.269 14-14S23.731 2 16 2zm2 2.167c5.668.955 10 5.897 10 11.833H18V4.167zM16 28c-5.936 0-10.878-4.332-11.833-10h23.652C26.863 23.666 21.934 28 16 28z"/><path d="M14 2.159A13.986 13.986 0 0 0 2.159 14H14V2.159z"/></symbol><symbol viewBox="0 0 32 32" class="dxicon" id="play" xmlns="http://www.w3.org/2000/svg"><path d="M16 2C8.269 2 2 8.269 2 16s6.269 14 14 14 14-6.269 14-14S23.731 2 16 2zm0 26C9.383 28 4 22.617 4 16S9.383 4 16 4s12 5.383 12 12-5.383 12-12 12z"/><path d="M11 22l12-6-12-6z"/></symbol><symbol viewBox="0 0 32 32" class="dyicon" id="power" xmlns="http://www.w3.org/2000/svg"><path d="M18 7.18V1h-4v6.18C8.326 8.134 4 13.055 4 19c0 6.628 5.371 12 12 12s12-5.372 12-12c0-5.945-4.326-10.866-10-11.82zM16 29c-5.514 0-10-4.486-10-10 0-4.829 3.441-8.869 8-9.798V19h4V9.202c4.559.929 8 4.969 8 9.798 0 5.514-4.486 10-10 10z"/></symbol><symbol viewBox="0 0 32 32" class="dzicon" id="power-down" xmlns="http://www.w3.org/2000/svg"><path d="M15 9h2v14h-2z"/><path d="M16 2C8.269 2 2 8.269 2 16s6.269 14 14 14 14-6.269 14-14S23.731 2 16 2zm0 26C9.383 28 4 22.617 4 16S9.383 4 16 4s12 5.383 12 12-5.383 12-12 12z"/></symbol><symbol viewBox="0 0 32 32" class="eaicon" id="presentation-file" xmlns="http://www.w3.org/2000/svg"><path d="M1 4v24h30V4H1zm28 22H3V10h26v16z"/><path d="M16 25c3.865 0 7-3.135 7-7s-3.135-7-7-7v7H9c0 3.865 3.135 7 7 7zm0-6h1v-6.916c2.834.477 5 2.948 5 5.916 0 3.309-2.691 6-6 6a6.01 6.01 0 0 1-5.917-5H16z"/><path d="M15 11.08A6.99 6.99 0 0 0 9.08 17H15v-5.92z"/></symbol><symbol viewBox="0 0 32 32" class="ebicon" id="previous" xmlns="http://www.w3.org/2000/svg"><path d="M16 2C8.269 2 2 8.269 2 16s6.269 14 14 14 14-6.269 14-14S23.731 2 16 2zm0 26C9.383 28 4 22.617 4 16S9.383 4 16 4s12 5.383 12 12-5.383 12-12 12z"/><path d="M16.707 10.707l-1.414-1.414L8.586 16l6.707 6.707 1.414-1.414L12.414 17H24v-2H12.414z"/></symbol><symbol viewBox="0 0 32 32" class="ecicon" id="print" xmlns="http://www.w3.org/2000/svg"><path d="M26 6V1H6v5H2v12h4v5l8 8h12V18h4V6h-4zM8 3h16v3H8V3zm7 26v-7H8v-8h16v15h-9z"/></symbol><symbol viewBox="0 0 32 32" class="edicon" id="project" xmlns="http://www.w3.org/2000/svg"><path d="M25 1l-7.646 7.646-.707.707-1.293 1.293-.707.707-1.293 1.293-.707.707-1.293 1.293-.707.707-1.293 1.293-.707.707-1.293 1.293-.707.707L4 22l-3 3 6 6 3-3L31 7l-6-6zM8.586 26.586l-3.172-3.172 2.646-2.647 1.586 1.586.707-.707-1.585-1.586 1.293-1.293 1.586 1.586.707-.707-1.586-1.586 1.293-1.293 1.586 1.586.707-.707-1.586-1.586 1.293-1.293 1.586 1.586.707-.707-1.586-1.586 1.293-1.293 1.586 1.586.707-.707-1.586-1.586 1.293-1.293 1.586 1.586.707-.707-1.586-1.586L25 3.829 28.172 7 8.586 26.586z"/><circle cx="25" cy="7" r="1"/></symbol><symbol viewBox="0 0 32 32" class="eeicon" id="recommendation" xmlns="http://www.w3.org/2000/svg"><path d="M14.5 13.586l-2.293-2.293-1.414 1.414 3.707 3.707 6.707-6.707-1.414-1.414z"/><path d="M27 12c0-6.074-4.924-11-11-11C9.926 1 5 5.926 5 12c0 4.21 2.369 7.865 5.844 9.714L10 31l6-4 6 4-.844-9.286A10.995 10.995 0 0 0 27 12zm-11 9c-4.971 0-9-4.029-9-9s4.029-9 9-9 9 4.029 9 9-4.029 9-9 9z"/></symbol><symbol viewBox="0 0 32 32" class="eficon" id="recording" xmlns="http://www.w3.org/2000/svg"><path d="M16 23c3.865 0 7-3.135 7-7V8c0-3.865-3.135-7-7-7S9 4.135 9 8v8c0 3.865 3.135 7 7 7zm-3-9h-2v-1h2a1 1 0 1 0 0-2h-2v-1h2a1 1 0 1 0 0-2h-2c0-2.757 2.243-5 5-5s5 2.243 5 5h-2a1 1 0 1 0 0 2h2v1h-2a1 1 0 1 0 0 2h2v1h-2a1 1 0 1 0 0 2h2c0 2.757-2.243 5-5 5s-5-2.243-5-5h2a1 1 0 1 0 0-2z"/><path d="M26 16h-2c0 4.411-3.589 8-8 8s-8-3.589-8-8H6c0 5.177 3.954 9.445 9 9.949V29h-3v2h8v-2h-3v-3.051c5.046-.504 9-4.772 9-9.949z"/></symbol><symbol viewBox="0 0 32 32" class="egicon" id="refresh" xmlns="http://www.w3.org/2000/svg"><path d="M17 29c-5.514 0-10-4.486-10-10S11.486 9 17 9h6.586l-4.293 4.293 1.414 1.414L27.414 8l-6.707-6.707-1.414 1.414L23.586 7H17C10.383 7 5 12.383 5 19s5.383 12 12 12a11.92 11.92 0 0 0 8.485-3.515l-1.414-1.414A9.934 9.934 0 0 1 17 29z"/></symbol><symbol viewBox="0 0 32 32" class="ehicon" id="relationship" xmlns="http://www.w3.org/2000/svg"><path d="M24 9a4 4 0 1 0 0-8 4 4 0 0 0 0 8zm0-6c1.103 0 2 .897 2 2 0 1.102-.897 2-2 2-1.104 0-2-.898-2-2 0-1.103.896-2 2-2zm3 8h-6l-5 5-5-5H5a2 2 0 0 0-2 2v8l2 2v7a1 1 0 0 0 1 1h4a1 1 0 0 0 1-1V16l5 5 5-5v14a1 1 0 0 0 1 1h4a1 1 0 0 0 1-1v-7l2-2v-8a2 2 0 0 0-2-2zM8 9a4 4 0 1 0 0-8 4 4 0 0 0 0 8zm0-6c1.103 0 2 .897 2 2 0 1.102-.897 2-2 2-1.104 0-2-.898-2-2 0-1.103.896-2 2-2z"/></symbol><symbol viewBox="0 0 32 32" class="eiicon" id="remove" xmlns="http://www.w3.org/2000/svg"><path d="M9 15h14v2H9z"/><path d="M16 2C8.269 2 2 8.269 2 16s6.269 14 14 14 14-6.269 14-14S23.731 2 16 2zm0 26C9.383 28 4 22.617 4 16S9.383 4 16 4s12 5.383 12 12-5.383 12-12 12z"/></symbol><symbol viewBox="0 0 32 32" class="ejicon" id="report" xmlns="http://www.w3.org/2000/svg"><path d="M10 7h5v21h-5zm7 10h5v1h-5zm0-2h5v1h-5zm0 4h5v1h-5zm0 2h5v1h-5zm0 2h5v1h-5zm0 2h5v1h-5zm0 2h5v1h-5z"/><path d="M6 1v30h20V1H6zm18 28H8V5h16v24z"/></symbol><symbol viewBox="0 0 32 32" class="ekicon" id="repository" xmlns="http://www.w3.org/2000/svg"><path d="M29 10V8h-2V6H5v2H3v2H1v16h30V10h-2zM6 7h20v1H6V7zm23 17H3V12h26v12z"/><path d="M19 19h1v-2h-1v1h-6v-1h-1v2h1z"/></symbol><symbol viewBox="0 0 32 32" class="elicon" id="reset" xmlns="http://www.w3.org/2000/svg"><path d="M19 5C12.383 5 7 10.383 7 17v6.586l-4.293-4.293-1.414 1.414L8 27.414l6.707-6.707-1.414-1.414L9 23.586V17c0-5.514 4.486-10 10-10s10 4.486 10 10a9.934 9.934 0 0 1-2.929 7.071l1.414 1.414A11.92 11.92 0 0 0 31 17c0-6.617-5.383-12-12-12z"/></symbol><symbol viewBox="0 0 32 32" class="emicon" id="restore" xmlns="http://www.w3.org/2000/svg"><path d="M19 4C12.383 4 7 9.383 7 16v8.586l-4.293-4.293-1.414 1.414L8 28.414l6.707-6.707-1.414-1.414L9 24.586V16c0-5.514 4.486-10 10-10s10 4.486 10 10-4.486 10-10 10v2c6.617 0 12-5.383 12-12S25.617 4 19 4z"/><path d="M20.293 18.707l1.414-1.414-1.647-1.647 5.294-5.292-.708-.708-5.292 5.293-2.647-2.646-1.414 1.414 2.647 2.647-1.294 1.292.708.708 1.292-1.294z"/></symbol><symbol viewBox="0 0 32 32" class="enicon" id="retrieve" xmlns="http://www.w3.org/2000/svg"><path d="M12 23h8v1h-8zm0 2h8v1h-8z"/><path d="M24 29V17H8v12H3v2h26v-2h-5zm-14 0V19h12v10H10zm5-23.586V15h2V5.414l3.293 3.293 1.414-1.414L16 1.586l-5.707 5.707 1.414 1.414z"/></symbol><symbol viewBox="0 0 32 32" class="eoicon" id="right-align" xmlns="http://www.w3.org/2000/svg"><path d="M9 6h22v2H9zm8 6h14v2H17zM5 18h26v2H5zm12 6h14v2H17z"/></symbol><symbol viewBox="0 0 32 32" class="epicon" id="role" xmlns="http://www.w3.org/2000/svg"><path d="M18 5V1h-4v4H6v26h20V5h-8zm-2-3a1 1 0 1 1 0 2 1 1 0 0 1 0-2zm8 27H8V7h6v2h4V7h6v22z"/><path d="M16 11c-2.762 0-5 2.238-5 5s2.238 5 5 5 5-2.238 5-5-2.238-5-5-5zm0 8c-1.654 0-3-1.346-3-3s1.346-3 3-3 3 1.346 3 3-1.346 3-3 3zm-4 4a2 2 0 0 0-2 2v2h12v-2a2 2 0 0 0-2-2h-8z"/></symbol><symbol viewBox="0 0 32 32" class="eqicon" id="rss-feed" xmlns="http://www.w3.org/2000/svg"><path d="M3 3v5c11.598 0 21 9.402 21 21h5C29 14.641 17.359 3 3 3z"/><path d="M3 13v5c6.076 0 11 4.924 11 11h5c0-8.837-7.163-16-16-16z"/><circle cx="4.5" cy="27.5" r="3.5"/></symbol><symbol viewBox="0 0 32 32" class="ericon" id="run" xmlns="http://www.w3.org/2000/svg"><path d="M11 11a5 5 0 1 0 .001 10.001A5 5 0 0 0 11 11zm0 7a2 2 0 1 1 0-4 2 2 0 0 1 0 4z"/><path d="M30.121 6.879A2.995 2.995 0 0 0 28 6H11a9.968 9.968 0 0 0-7.071 2.929C2.119 10.738 1 13.238 1 16s1.119 5.262 2.929 7.071A9.968 9.968 0 0 0 11 26a9.992 9.992 0 0 0 7.071-2.929.018.018 0 0 0 .004-.005c3.011-2.998 12.045-11.945 12.045-11.945.545-.542.88-1.292.88-2.121s-.335-1.579-.879-2.121zm-13.46 14.773l-.001.001A7.973 7.973 0 0 1 11 24a7.948 7.948 0 0 1-5.657-2.343C3.832 20.146 3 18.137 3 16s.832-4.146 2.343-5.657A7.948 7.948 0 0 1 11 8c2.049 0 4.097.783 5.657 2.343 3.117 3.118 3.118 8.19.004 11.309zm4.221-4.191c.444-3.022-.485-6.206-2.811-8.533A10.089 10.089 0 0 0 16.982 8h8.2a2.99 2.99 0 0 0 .697 3.121c.246.246.528.428.824.571a9370.67 9370.67 0 0 0-5.821 5.769zM28 10a1 1 0 1 1 0-2 1 1 0 0 1 0 2z"/></symbol><symbol viewBox="0 0 32 32" class="esicon" id="satellite-dish" xmlns="http://www.w3.org/2000/svg"><path d="M28 21l-9-9 2.494-4.157A.974.974 0 0 0 22 8a1 1 0 1 0 0-2 1 1 0 0 0-1 1c0 .188.066.356.157.506L17 10 8 1C5.45 3.549 4 7.11 4 11c0 3.891 1.45 7.451 4 10 2.548 2.549 6.109 4 10 4 3.89 0 7.451-1.451 10-4zM6 11c0-2.614.745-5.053 2.127-7.045l16.918 16.918C23.053 22.255 20.614 23 18 23c-3.336 0-6.385-1.213-8.586-3.414C7.213 17.385 6 14.336 6 11zm5 16h10v4H11z"/></symbol><symbol viewBox="0 0 32 32" class="eticon" id="save" xmlns="http://www.w3.org/2000/svg"><path d="M3 3v26h22l4-4V3H3zm24 21.171L24.172 27H22v-2H10v2H5V5h22v19.171z"/><path d="M16 22a6 6 0 1 0-.002-12.002A6 6 0 0 0 16 22zm0-8a2 2 0 1 1-.001 4.001A2 2 0 0 1 16 14z"/></symbol><symbol viewBox="0 0 32 32" class="euicon" id="search" xmlns="http://www.w3.org/2000/svg"><path d="M12 1C5.926 1 1 5.926 1 12s4.926 11 11 11 11-4.926 11-11S18.074 1 12 1zm0 20c-4.962 0-9-4.038-9-9s4.038-9 9-9 9 4.038 9 9-4.038 9-9 9zm9 3l3-3 7 6.999-3 3z"/><circle cx="21" cy="21" r="1"/></symbol><symbol viewBox="0 0 32 32" class="evicon" id="secure" xmlns="http://www.w3.org/2000/svg"><path d="M14.5 21.586l-2.293-2.293-1.414 1.414 3.707 3.707 6.707-6.707-1.414-1.414z"/><path d="M24 12.466V9c0-4.418-3.581-8-8-8S8 4.582 8 9v3.467A10.95 10.95 0 0 0 5 20c0 6.074 4.926 11 11 11 6.076 0 11-4.926 11-11 0-2.919-1.145-5.564-3-7.534zM10 9c0-3.309 2.691-6 6-6s6 2.691 6 6v1.788A10.94 10.94 0 0 0 16 9a10.94 10.94 0 0 0-6 1.788V9zm6 20c-4.971 0-9-4.029-9-9s4.029-9 9-9 9 4.029 9 9-4.029 9-9 9z"/></symbol><symbol viewBox="0 0 32 32" class="ewicon" id="settings" xmlns="http://www.w3.org/2000/svg"><path d="M30.366 5.876l-4.245 4.246c-.586.585-1.353.878-2.121.878s-1.535-.293-2.121-.879a3 3 0 0 1-.001-4.243l4.245-4.245A8 8 0 0 0 15 9c0 .914.161 1.789.443 2.606L2.025 25.025a3.5 3.5 0 1 0 4.95 4.95l13.418-13.418A7.98 7.98 0 0 0 23 17a8 8 0 0 0 7.366-11.124zM23 15a5.972 5.972 0 0 1-1.954-.334l-1.183-.409-.885.885L5.561 28.56c-.284.284-.661.44-1.061.44s-.777-.156-1.06-.44A1.487 1.487 0 0 1 3 27.5c0-.401.156-.777.44-1.061l13.418-13.418.885-.884-.408-1.182A5.957 5.957 0 0 1 17 9a6.009 6.009 0 0 1 4.81-5.881l-1.347 1.346a5.007 5.007 0 0 0 .001 7.07A4.969 4.969 0 0 0 24 13c1.335 0 2.591-.52 3.535-1.465l1.347-1.347A6.011 6.011 0 0 1 23 15z"/><circle cx="4.5" cy="27.5" r="1"/></symbol><symbol viewBox="0 0 32 32" class="exicon" id="sort" xmlns="http://www.w3.org/2000/svg"><path class="exst0" d="M23.7 24.2V4.1h-2v20.1l-4.3-4.3-1.4 1.4 6.7 6.7 6.7-6.7-1.4-1.4zM8.2 7.9V28h2V7.9l4.3 4.3 1.4-1.4-6.7-6.7-6.7 6.7 1.4 1.4z"/></symbol><symbol viewBox="0 0 32 32" class="eyicon" id="spaces" xmlns="http://www.w3.org/2000/svg"><path d="M1 6v20h30V6H1zm28 18H3V8h26v16z"/><path d="M28 9H17v6h11V9zm-1 5h-9v-4h9v4zM4 9h11v6H4zm11 8H4v6h11v-6zm-1 5H5v-4h9v4zm14-5H17v6h11v-6zm-1 5h-9v-4h9v4z"/></symbol><symbol viewBox="0 0 32 32" class="ezicon" id="speaker" xmlns="http://www.w3.org/2000/svg"><path d="M5 1v30h22V1H5zm20 28H7V3h18v26z"/><path d="M16 27a7 7 0 1 0 0-14 7 7 0 0 0 0 14zm0-9a2 2 0 1 1-.001 4.001A2 2 0 0 1 16 18z"/><circle cx="16" cy="8" r="2"/></symbol><symbol viewBox="0 0 32 32" class="faicon" id="spell-check" xmlns="http://www.w3.org/2000/svg"><path d="M6.832 16.62v-3.229c0-.376-.084-.678-.252-.905a1.717 1.717 0 0 0-.648-.534 2.9 2.9 0 0 0-.876-.258 6.953 6.953 0 0 0-.948-.066c-.344 0-.686.034-1.026.103-.34.067-.646.182-.918.342-.272.16-.496.372-.672.636-.176.264-.276.596-.3.996h1.704c.032-.336.144-.576.336-.72.192-.145.456-.217.792-.217.152 0 .294.011.426.03a.982.982 0 0 1 .348.12c.1.059.18.143.24.252.06.108.09.254.09.439.008.176-.044.31-.156.401a1.137 1.137 0 0 1-.456.21 4.546 4.546 0 0 1-.66.108c-.249.023-.5.056-.756.096s-.51.095-.762.162a2.15 2.15 0 0 0-.672.306 1.559 1.559 0 0 0-.48.547c-.124.227-.186.517-.186.869 0 .32.054.597.162.828.108.233.258.425.45.576.192.152.416.264.672.336.256.072.532.108.828.108.384 0 .76-.057 1.128-.168a2.22 2.22 0 0 0 .96-.588 2.56 2.56 0 0 0 .12.6h1.728c-.08-.128-.136-.32-.168-.576a6.483 6.483 0 0 1-.048-.804zM5.128 15.6c0 .097-.01.225-.03.385-.02.16-.074.317-.162.474-.088.156-.224.29-.408.402-.184.111-.444.168-.78.168-.136 0-.268-.013-.396-.036a.962.962 0 0 1-.336-.126.651.651 0 0 1-.228-.246.802.802 0 0 1-.084-.384.83.83 0 0 1 .084-.396.79.79 0 0 1 .222-.258c.092-.068.2-.122.324-.162.124-.04.25-.072.378-.096.136-.025.272-.045.408-.061.136-.016.266-.036.39-.06s.24-.054.348-.09a.764.764 0 0 0 .27-.15v.636zm4.644 1.608h.024c.184.344.456.588.816.732.36.144.768.216 1.224.216a2.362 2.362 0 0 0 1.746-.78c.244-.264.442-.602.594-1.014.152-.412.228-.902.228-1.471 0-.567-.076-1.058-.228-1.47a3.007 3.007 0 0 0-.594-1.014 2.353 2.353 0 0 0-1.746-.78c-.384 0-.754.074-1.11.222a1.824 1.824 0 0 0-.846.702h-.024v-3.12H8.152V18h1.62v-.792zm.108-3.06a1.99 1.99 0 0 1 .264-.637 1.257 1.257 0 0 1 1.104-.6c.256 0 .474.054.654.162.18.107.33.254.45.438.12.185.208.397.264.637.056.239.084.491.084.756 0 .256-.028.504-.084.744a1.994 1.994 0 0 1-.264.636c-.12.184-.27.33-.45.438-.18.108-.398.162-.654.162a1.257 1.257 0 0 1-1.104-.6 1.972 1.972 0 0 1-.264-.636 3.264 3.264 0 0 1-.084-.744c0-.264.028-.516.084-.756zm6.276 3.12c.272.28.602.498.99.654.388.156.814.234 1.278.234.824 0 1.5-.216 2.028-.649.528-.432.848-1.06.96-1.884h-1.644c-.056.384-.194.691-.414.918-.22.228-.534.342-.942.342-.264 0-.488-.06-.672-.18a1.344 1.344 0 0 1-.438-.462 2.126 2.126 0 0 1-.234-.63 3.372 3.372 0 0 1 0-1.387c.048-.235.13-.451.246-.648.116-.196.266-.356.45-.48s.412-.186.684-.186c.728 0 1.148.356 1.26 1.068h1.668c-.024-.4-.12-.746-.288-1.038a2.344 2.344 0 0 0-.654-.732 2.835 2.835 0 0 0-.912-.438 3.852 3.852 0 0 0-1.062-.145c-.504 0-.952.084-1.344.252a2.829 2.829 0 0 0-.996.702c-.272.3-.479.656-.618 1.068-.14.412-.21.857-.21 1.338 0 .464.076.89.228 1.277.152.392.364.726.636 1.006z"/><path d="M28 14L17 25l-5-5-3 3 8 8 14-14z"/></symbol><symbol viewBox="0 0 32 32" class="fbicon" id="star-rating" xmlns="http://www.w3.org/2000/svg"><path d="M31 13l-11-1-4-11-4 11-11 1 9 7-3 11 9-7 9 7-3-11 9-7zm-13.772 9.421L16 21.466l-1.228.955-4.264 3.316 1.421-5.211.351-1.287-1.052-.818-5-3.889 5.953-.541 1.265-.115.434-1.193L16 6.852l2.121 5.831.434 1.193 1.265.115 5.953.541-4.999 3.889-1.054.819.351 1.287 1.421 5.211-4.264-3.317z"/></symbol><symbol viewBox="0 0 32 32" class="fcicon" id="stop" xmlns="http://www.w3.org/2000/svg"><path d="M16 2C8.269 2 2 8.269 2 16s6.269 14 14 14 14-6.269 14-14S23.731 2 16 2zm0 26C9.383 28 4 22.617 4 16S9.383 4 16 4s12 5.383 12 12-5.383 12-12 12z"/><path d="M11 11h10v10H11z"/></symbol><symbol viewBox="0 0 32 32" class="fdicon" id="tables" xmlns="http://www.w3.org/2000/svg"><path d="M1 4v24h30V4H1zm18 13H3v-7h16v7zM3 26v-7h16v7H3zm26 0h-8v-7h8v7zm0-9h-8v-7h8v7z"/></symbol><symbol viewBox="0 0 32 32" class="feicon" id="tag" xmlns="http://www.w3.org/2000/svg"><path d="M18 1L4 15l-3 3 13 13 3-3 14-14V1H18zm11 12.172L15.586 26.586 5.414 16.414 18.829 3H29v10.172z"/><circle cx="24" cy="8" r="2"/></symbol><symbol viewBox="0 0 32 32" class="fficon" id="template" xmlns="http://www.w3.org/2000/svg"><path d="M18 11H4v14h14V11zm-1 1.707v10.586L11.707 18 17 12.707zm-6 4.586L5.707 12h10.586L11 17.293zm-.707.707L5 23.293V12.707L10.293 18zm.707.707L16.293 24H5.707L11 18.707zM20 11h8v14h-8z"/><path d="M1 4v24h30V4H1zm28 22H3V10h26v16z"/></symbol><symbol viewBox="0 0 32 32" class="fgicon" id="terminal" xmlns="http://www.w3.org/2000/svg"><path d="M7.707 23.707L13.414 18l-5.707-5.707-1.414 1.414L10.586 18l-4.293 4.293z"/><path d="M1 4v24h30V4H1zm28 22H3V10h26v16z"/></symbol><symbol viewBox="0 0 32 32" class="fhicon" id="text-color" xmlns="http://www.w3.org/2000/svg"><path d="M6 25h20v6H6zm6.4-6h7.2l1.4 4h4L18 3h-4L7 23h4l1.4-4zM16 8.714L18.2 15h-4.4L16 8.714z"/></symbol><symbol viewBox="0 0 32 32" class="fiicon" id="tile-view" xmlns="http://www.w3.org/2000/svg"><path d="M19 3h10v10H19z"/><path d="M17 3H3v26h26V15H17V3zm-2 24H5V17h10v10zm12-10v10H17V17h10zM5 15V5h10v10H5z"/></symbol><symbol viewBox="0 0 32 32" class="fjicon" id="time" xmlns="http://www.w3.org/2000/svg"><path d="M16 2C8.268 2 2 8.268 2 16s6.268 14 14 14 14-6.268 14-14S23.732 2 16 2zm0 26C9.383 28 4 22.617 4 16S9.383 4 16 4s12 5.383 12 12-5.383 12-12 12z"/><path d="M22.646 8.646l-6.293 6.293-3.646-3.646-1.414 1.414 3.646 3.647-1.293 1.292.707.708 1.293-1.294 1.647 1.647 1.414-1.414-1.647-1.647 6.293-6.292z"/></symbol><symbol viewBox="0 0 32 32" class="fkicon" id="tools" xmlns="http://www.w3.org/2000/svg"><path d="M1 26l4 4 17-17-4-4L1 26zm4 1.172L3.828 26 18 11.828 19.172 13 5 27.172zM30 11h-2V9l-7-7h-8l11 11h2v2l1 1 4-4z"/></symbol><symbol viewBox="0 0 32 32" class="flicon" id="traffic" xmlns="http://www.w3.org/2000/svg"><circle cx="17" cy="8" r="3"/><path d="M17 19a3.001 3.001 0 0 0 0-6 3.001 3.001 0 0 0 0 6zm0-5c1.103 0 2 .896 2 2s-.897 2-2 2-2-.896-2-2 .898-2 2-2zm0 13a3.001 3.001 0 0 0 0-6 3.001 3.001 0 0 0 0 6zm0-5c1.103 0 2 .896 2 2s-.897 2-2 2-2-.896-2-2 .898-2 2-2z"/><path d="M28 13h-4v-2l4-6h-4V1H10v4H6l4 6v2H6l4 6v2H6l4 6v4h14v-4l4-6h-4v-2l4-6zm-6 16H12V3h10v26z"/></symbol><symbol viewBox="0 0 32 32" class="fmicon" id="trash" xmlns="http://www.w3.org/2000/svg"><path d="M12 2h8v2h-8zM6 5v5h1v20h18V10h1V5H6zm17 23H9V12h14v16z"/><path d="M11 14h1v12h-1zm3 0h1v12h-1zm3 0h1v12h-1zm3 0h1v12h-1z"/></symbol><symbol viewBox="0 0 32 32" class="fnicon" id="underline" xmlns="http://www.w3.org/2000/svg"><path d="M7 27h18v2H7zM21 3v13c0 2.762-2.238 5-5 5s-5-2.238-5-5V3H7v13c0 4.971 4.029 9 9 9s9-4.029 9-9V3h-4z"/></symbol><symbol viewBox="0 0 32 32" class="foicon" id="up-to-top" xmlns="http://www.w3.org/2000/svg"><path d="M6 1h20v4H6zm1.293 17.293l1.414 1.414L15 13.413V30h2V13.415l6.293 6.292 1.414-1.414-8.708-8.707z"/></symbol><symbol viewBox="0 0 32 32" class="fpicon" id="upload" xmlns="http://www.w3.org/2000/svg"><path d="M15 5.414V22h2V5.414l6.293 6.293 1.414-1.414L16 1.585l-8.707 8.708 1.414 1.414z"/><path d="M29 19v8H3v-8H1v12h30V19z"/></symbol><symbol viewBox="0 0 32 32" class="fqicon" id="user" xmlns="http://www.w3.org/2000/svg"><path d="M16 21c5.523 0 10-4.477 10-10S21.523 1 16 1 6 5.477 6 11s4.477 10 10 10zm0-18c4.411 0 8 3.589 8 8s-3.589 8-8 8-8-3.589-8-8 3.589-8 8-8zm8 20H8a4 4 0 0 0-4 4v4h24v-4a4 4 0 0 0-4-4z"/></symbol><symbol viewBox="0 0 32 32" class="fricon" id="video" xmlns="http://www.w3.org/2000/svg"><path d="M11 13v10l10-5z"/><path d="M1 4v24h30V4H1zm28 22H3V10h26v16z"/></symbol><symbol viewBox="0 0 32 32" class="fsicon" id="video-file" xmlns="http://www.w3.org/2000/svg"><path d="M3 3v26h26V3H3zm2 2h22v18H5V5z"/><path d="M10 20l12-6-12-6z"/></symbol><symbol viewBox="0 0 32 32" class="fticon" id="view" xmlns="http://www.w3.org/2000/svg"><path d="M16 11c-3.314 0-6 2.685-6 6s2.686 6 6 6c3.315 0 6-2.685 6-6s-2.685-6-6-6zm0 8c-1.106 0-2-.895-2-2s.894-2 2-2 2 .895 2 2-.895 2-2 2z"/><path d="M16 8C9.269 8 4.147 11.625 1 17c3.147 5.375 8.269 9 15 9s11.854-3.625 15-9c-3.146-5.375-8.27-9-15-9zm0 16c-5.164 0-9.612-2.475-12.642-7 3.029-4.525 7.477-7 12.642-7s9.612 2.475 12.642 7c-3.03 4.525-7.478 7-12.642 7z"/></symbol><symbol viewBox="0 0 32 32" class="fuicon" id="warn" xmlns="http://www.w3.org/2000/svg"><path d="M16 3L1 29h30L16 3zm0 4.002L27.537 27H4.463L16 7.002z"/><path d="M15 14v2l.5 5h1l.5-5v-2z"/><circle cx="16" cy="23" r="1"/></symbol><symbol viewBox="0 0 32 32" class="fvicon" id="watch" xmlns="http://www.w3.org/2000/svg"><path d="M21.646 9.646l-5.292 5.293-2.647-2.646-1.414 1.414 2.646 2.647-1.293 1.292.708.708 1.292-1.294 1.647 1.647 1.414-1.414-1.647-1.647 5.294-5.292z"/><path d="M27.949 15A11.964 11.964 0 0 0 23 6.268V1H9v5.268C5.977 8.445 4 11.988 4 16s1.977 7.555 5 9.732V31h14v-5.268A11.966 11.966 0 0 0 27.949 17H29v-2h-1.051zM16 26c-5.514 0-10-4.486-10-10S10.486 6 16 6s10 4.486 10 10-4.486 10-10 10z"/></symbol><symbol viewBox="0 0 32 32" class="fwicon" id="wikis" xmlns="http://www.w3.org/2000/svg"><path d="M16 2C8.268 2 2 8.268 2 16s6.268 14 14 14 14-6.268 14-14S23.732 2 16 2zm4.928 18.221L16.707 16l8.111-8.111.006.007c.548 4.643-.842 9.057-3.896 12.325zm-9.856-8.442L15.293 16l-8.111 8.111-.006-.007c-.548-4.643.842-9.057 3.896-12.325zm13.039-4.597L16 15.293l-4.225-4.225c2.775-2.592 6.443-4.027 10.406-4.027.635 0 1.273.05 1.91.123l.02.018zM7.889 24.818L16 16.707l4.225 4.225c-2.775 2.592-6.443 4.027-10.405 4.027-.635 0-1.274-.05-1.911-.123l-.02-.018zM22.723 6.065c-.181-.006-.361-.024-.541-.024-4.229 0-8.148 1.54-11.113 4.32l-3.18-3.18C10.027 5.213 12.871 4 16 4c2.489 0 4.803.763 6.723 2.065zM7.182 7.889l3.174 3.174c-2.895 3.09-4.421 7.286-4.296 11.652A11.929 11.929 0 0 1 4 16c0-3.129 1.213-5.973 3.182-8.111zm2.095 18.046c.181.006.362.024.542.024 4.229 0 8.148-1.539 11.112-4.32l3.18 3.18C21.973 26.787 19.129 28 16 28a11.94 11.94 0 0 1-6.723-2.065zm15.541-1.824l-3.174-3.174c2.895-3.09 4.421-7.286 4.296-11.652A11.929 11.929 0 0 1 28 16c0 3.129-1.213 5.973-3.182 8.111z"/></symbol><symbol viewBox="0 0 32 32" class="fxicon" id="workspace" xmlns="http://www.w3.org/2000/svg"><path d="M1 6v2h2v18h12V8h12v18h2V8h2V6H1zm12 8H5v-4h8v4zM5 24v-8h8v8H5z"/><circle cx="9" cy="12" r="1"/></symbol><symbol viewBox="0 0 32 32" class="fyicon" id="world" xmlns="http://www.w3.org/2000/svg"><path d="M8.575 18.925A10.467 10.467 0 0 0 16 22c2.531 0 5.055-.922 7.054-2.74l.018.018.707-.707-.018-.019c3.748-4.119 3.645-10.497-.336-14.477A10.467 10.467 0 0 0 16 1c-2.531 0-5.055.922-7.054 2.74l-.017-.018-.707.707.018.019c-3.749 4.119-3.645 10.496.335 14.477zM16 3c2.271 0 4.405.885 6.011 2.489 3.194 3.195 3.3 8.316.335 11.649L10.36 5.152A8.437 8.437 0 0 1 16 3zm5.64 14.848A8.437 8.437 0 0 1 16 20a8.451 8.451 0 0 1-6.011-2.489c-3.194-3.194-3.3-8.315-.335-11.649L21.64 17.848z"/><path d="M26.253 1.247l-1.414 1.414C27.2 5.022 28.5 8.16 28.5 11.5s-1.3 6.479-3.661 8.839C22.479 22.699 19.34 24 16 24s-6.479-1.301-8.839-3.661l-1.414 1.414C8.484 24.492 12.126 26 16 26s7.516-1.508 10.253-4.247c2.738-2.738 4.247-6.38 4.247-10.253s-1.509-7.515-4.247-10.253zM11 28h10v3H11z"/></symbol><symbol viewBox="0 0 32 32" class="fzicon" id="zoom-in" xmlns="http://www.w3.org/2000/svg"><path d="M12 1C5.926 1 1 5.926 1 12s4.926 11 11 11 11-4.926 11-11S18.074 1 12 1zm0 20c-4.962 0-9-4.038-9-9s4.038-9 9-9 9 4.038 9 9-4.038 9-9 9zm9 3l3-3 7 6.999-3 3z"/><circle cx="21" cy="21" r="1"/><path d="M13 6h-2v5H6v2h5v5h2v-5h5v-2h-5z"/></symbol><symbol viewBox="0 0 32 32" class="gaicon" id="zoom-out" xmlns="http://www.w3.org/2000/svg"><path d="M12 1C5.926 1 1 5.926 1 12s4.926 11 11 11 11-4.926 11-11S18.074 1 12 1zm0 20c-4.963 0-9-4.038-9-9s4.037-9 9-9 9 4.038 9 9-4.037 9-9 9zm9 3l3-3 7 6.999-3 3z"/><circle cx="21" cy="21" r="1"/><path d="M6 11h12v2H6z"/></symbol></svg>