<svg xmlns="http://www.w3.org/2000/svg" width="32" height="32" viewBox="0 0 32 32" class="icon"><path d="M25.192 16.192l-1.414-1.414a10.804 10.804 0 0 1-3.242 2.221l-2.32-6.671A3.995 3.995 0 0 0 20 7a3.99 3.99 0 0 0-3-3.858V1h-2v2.142A3.99 3.99 0 0 0 12 7c0 1.389.709 2.61 1.784 3.328L7.056 29.671l1.889.657 3.747-10.773c1.082.283 2.195.428 3.309.428 1.114 0 2.227-.145 3.309-.428l3.747 10.773 1.889-.657-3.75-10.783a12.808 12.808 0 0 0 3.996-2.696zM16 6a1 1 0 1 1 0 2 1 1 0 0 1 0-2zm-2.649 11.66l2.328-6.692c.108.009.211.032.321.032.11 0 .213-.023.321-.032l2.328 6.692a11.066 11.066 0 0 1-5.298 0z"/></svg>