<svg xmlns="http://www.w3.org/2000/svg" width="32" height="32" viewBox="0 0 32 32" class="icon"><path d="M11.843 14h8.313c-.896-1.205-2.423-2-4.157-2-1.733 0-3.259.795-4.156 2zM11.033 16a3.936 3.936 0 0 0-.033.5V18h10v-1.5c0-.169-.012-.336-.033-.5h-9.934zM11 21.5c0 .169.012.336.033.5h9.935a4.13 4.13 0 0 0 .032-.5V20H11v1.5zM16 26c1.734 0 3.26-.795 4.157-2h-8.313c.896 1.205 2.422 2 4.156 2zM3.23 15.049a3.609 3.609 0 0 0-1.955 4.721A3.609 3.609 0 0 0 4.606 22h.014a3.602 3.602 0 0 0 2.548-1.057c.346-.347.606-.745.783-1.173L11 12l-7.77 3.049zm3.797 4.338A2.605 2.605 0 0 1 4.606 21a2.615 2.615 0 0 1-1.01-5.02l5.636-2.213-2.205 5.62zM30.725 17.004a3.609 3.609 0 0 0-1.955-1.955L21 12l3.049 7.77a3.608 3.608 0 0 0 3.33 2.23h.014a3.616 3.616 0 0 0 2.548-1.057c.347-.347.606-.745.783-1.173a3.597 3.597 0 0 0 .001-2.766zm-.924 2.384a2.616 2.616 0 0 1-1.412 1.414 2.613 2.613 0 0 1-2.004-.001 2.615 2.615 0 0 1-1.407-1.396l-2.211-5.637 5.618 2.205a2.59 2.59 0 0 1 1.415 1.414c.132.32.2.656.199 1.001a2.6 2.6 0 0 1-.198 1zM13.5 11a2 2 0 1 0 .001-3.999A2 2 0 0 0 13.5 11zm0-3c.551 0 1 .449 1 1s-.449 1-1 1c-.551 0-1-.449-1-1s.449-1 1-1zM18.5 11a2 2 0 1 0 .001-3.999A2 2 0 0 0 18.5 11zm0-3c.551 0 1 .449 1 1s-.449 1-1 1c-.551 0-1-.449-1-1s.449-1 1-1z"/></svg>