<svg xmlns="http://www.w3.org/2000/svg" width="32" height="32" viewBox="0 0 32 32" class="icon"><path d="M12.858 7C12.412 5.278 10.861 4 9 4S5.588 5.278 5.142 7H1v2h4.142c.446 1.722 1.997 3 3.858 3s3.412-1.278 3.858-3H31V7H12.858zM9 9a1 1 0 1 1 0-2 1 1 0 0 1 0 2zM23 12a3.99 3.99 0 0 0-3.858 3H1v2h18.142c.446 1.722 1.997 3 3.858 3s3.412-1.278 3.858-3H31v-2h-4.142A3.99 3.99 0 0 0 23 12zm0 5a1 1 0 1 1 0-2 1 1 0 0 1 0 2zM9 20a3.99 3.99 0 0 0-3.858 3H1v2h4.142c.446 1.722 1.997 3 3.858 3s3.412-1.278 3.858-3H31v-2H12.858A3.99 3.99 0 0 0 9 20zm0 5a1 1 0 1 1 0-2 1 1 0 0 1 0 2z"/></svg>