<svg xmlns="http://www.w3.org/2000/svg" width="32" height="32" viewBox="0 0 32 32" class="icon"><path d="M31 15h-1.09c-.478-2.836-2.941-5-5.91-5-1.176 0-2.27.344-3.196.93l-.136-.136C19.378 9.637 17.721 9 16 9s-3.378.637-4.707 1.831l-.098.098A5.96 5.96 0 0 0 8 10a5.999 5.999 0 0 0-5.91 5H1v2h1.09c.477 2.836 2.94 5 5.91 5 3.311 0 6-2.687 6-6a5.965 5.965 0 0 0-1.31-3.734A4.987 4.987 0 0 1 16 11c1.227 0 2.41.455 3.293 1.245l.019.019A5.958 5.958 0 0 0 18 16c0 3.313 2.69 6 6 6a5.999 5.999 0 0 0 5.91-5H31v-2zM8 20c-2.205 0-4-1.795-4-4s1.795-4 4-4 4 1.795 4 4-1.795 4-4 4zm16 0c-2.205 0-4-1.795-4-4s1.795-4 4-4 4 1.795 4 4-1.795 4-4 4z"/></svg>