<svg xmlns="http://www.w3.org/2000/svg" width="32" height="32" viewBox="0 0 32 32" class="icon"><path d="M8.575 18.925A10.467 10.467 0 0 0 16 22c2.531 0 5.055-.922 7.054-2.74l.018.018.707-.707-.018-.019c3.748-4.119 3.645-10.497-.336-14.477A10.467 10.467 0 0 0 16 1c-2.531 0-5.055.922-7.054 2.74l-.017-.018-.707.707.018.019c-3.749 4.119-3.645 10.496.335 14.477zM16 3c2.271 0 4.405.885 6.011 2.489 3.194 3.195 3.3 8.316.335 11.649L10.36 5.152A8.437 8.437 0 0 1 16 3zm5.64 14.848A8.437 8.437 0 0 1 16 20a8.451 8.451 0 0 1-6.011-2.489c-3.194-3.194-3.3-8.315-.335-11.649L21.64 17.848z"/><path d="M26.253 1.247l-1.414 1.414C27.2 5.022 28.5 8.16 28.5 11.5s-1.3 6.479-3.661 8.839C22.479 22.699 19.34 24 16 24s-6.479-1.301-8.839-3.661l-1.414 1.414C8.484 24.492 12.126 26 16 26s7.516-1.508 10.253-4.247c2.738-2.738 4.247-6.38 4.247-10.253s-1.509-7.515-4.247-10.253zM11 28h10v3H11z"/></svg>